<?xml version="1.0" encoding="UTF-8"?>
<svg id="Imagotipo" xmlns="http://www.w3.org/2000/svg" viewBox="0 0 1920 1080">
  <defs>
    <style>
      .cls-1 {
        stroke-width: 0px;
      }
    </style>
  </defs>
  <g>
    <path class="cls-1" d="m1385.22,114.16c-36.05-18.73-74.77-26.71-112.77-24.15-43.05,2.89-74.09,20.26-108.4,38.92-24.07,13.09-42.79,26.42-55.7,36.47,17.93-1.16,35.86-2.32,53.78-3.48-7.72,16.02-15.44,32.05-23.16,48.07,11.84-11.02,29.83-25.92,54.17-39.64,24.1-13.59,48.19-27.38,82.7-29.69,29-1.95,58.54,4.14,86.05,18.43,54.98,28.57,87.8,82.61,87.8,144.57s-32.82,115.99-87.8,144.56c-54.98,28.56-118.06,24.35-168.75-11.27l-189.72-133.29c-14.67-10.31-29.34-20.62-44.01-30.94l-204.63-143.78c-66.45-46.68-149.13-52.19-221.19-14.76-72.06,37.45-115.07,108.27-115.07,189.46h0c0,81.21,43.01,152.03,115.07,189.48,31.69,16.45,65.43,24.62,98.95,24.62,42.7,0,85.01-13.24,122.24-39.39l34.38-24.16,24.48-17.2,2.37-1.66c3.98-2.9,7.96-5.8,11.94-8.7,5.22-15.46,10.44-30.92,15.66-46.38-17.31,3.37-34.63,6.73-51.94,10.1-2.14,1.58-4.27,3.16-6.41,4.74l-2.64,1.85-21.3,14.97-35.64,25.05c-50.69,35.61-113.79,39.82-168.77,11.27-54.98-28.57-87.8-82.61-87.8-144.57s32.82-115.99,87.8-144.56c24.18-12.56,49.92-18.78,75.5-18.78,32.56,0,64.86,10.1,93.26,30.05l189.71,133.29c14.67,10.31,29.35,20.62,44.02,30.92l204.63,143.78c66.44,46.69,149.12,52.21,221.18,14.77,72.06-37.45,115.07-108.27,115.07-189.48s-43.01-152.02-115.07-189.46Z"/>
    <line class="cls-1" x1="813.65" y1="436.96" x2="816.02" y2="435.3"/>
    <path class="cls-1" d="m727.89,33.26c63.44,29.63,87.32,51.71,213.63,179.86-1.49-1.09-172.01-173.78-313.46-173.78-1.09,0-164.3-16.32-245.9,183.88-.27,0,.41-11.02,4.54-28.27C422.52,45.34,588.51-31.85,727.89,33.26Z"/>
    <path class="cls-1" d="m1192.11,575.52c-63.44-29.63-87.32-51.71-213.63-179.86,1.49,1.09,172.01,173.78,313.46,173.78,1.09,0,164.3,16.32,245.9-183.88.27,0-.41,11.02-4.54,28.27-35.82,149.61-201.81,226.8-341.19,161.69Z"/>
  </g>
  <g id="Logotipo-2" data-name="Logotipo">
    <g>
      <path class="cls-1" d="m260.22,687.16c8.34,4.82,14.53,11.38,18.57,19.7,4.04,8.32,6.05,17.73,6.05,28.23s-2.09,19.37-6.26,27.47c-4.17,8.1-10.39,14.48-18.67,19.15-8.27,4.67-18.33,7-30.17,7h-40.37v45.96c0,3.65-1.68,5.47-5.05,5.47h-8.88c-3.36,0-5.05-1.82-5.05-5.47v-149.27c0-3.65,1.68-5.47,5.05-5.47h53.89c12.24,0,22.53,2.41,30.88,7.22Zm-10.19,79.23c5.31-3.36,9.28-7.8,11.91-13.35,2.62-5.54,3.94-11.52,3.94-17.95s-1.38-12.73-4.14-18.49c-2.76-5.76-6.86-10.47-12.31-14.12-5.45-3.65-12.08-5.47-19.88-5.47h-40.16v74.41h41.37c7.53,0,13.96-1.68,19.27-5.03Z"/>
      <path class="cls-1" d="m450.81,823.3c3.78,0,5.68,1.83,5.68,5.47v5.91c0,3.65-1.89,5.47-5.68,5.47h-103.08c-3.79,0-5.68-1.82-5.68-5.47v-149.27c0-3.65,1.89-5.47,5.68-5.47h9.99c3.78,0,5.68,1.83,5.68,5.47v137.88h87.41Z"/>
      <path class="cls-1" d="m517.66,840.15h-10.79c-1.38,0-2.46-.33-3.21-.99-.76-.66-1.14-1.57-1.14-2.74,0-.88.21-1.82.62-2.84l69.69-150.36c.55-1.31,1.14-2.19,1.76-2.63.62-.44,1.35-.66,2.18-.66s1.56.22,2.18.66c.62.44,1.21,1.31,1.76,2.63l69.69,150.36c.42,1.02.62,1.97.62,2.84,0,1.17-.38,2.08-1.14,2.74-.76.66-1.83.99-3.21.99h-10.99c-2.77,0-4.84-1.38-6.22-4.16l-11.61-26.26h-82.34l-11.61,26.26c-1.24,2.77-3.32,4.16-6.22,4.16Zm26.13-47.71h65.96l-32.77-74.2-33.19,74.2Z"/>
      <path class="cls-1" d="m845.57,685.41v151.89c0,1.9-.82,2.84-2.44,2.84-.74,0-1.41-.18-2-.55-.59-.36-1.41-1.13-2.44-2.3l-109.77-112.28v109.65c0,3.65-1.85,5.47-5.55,5.47h-9.55c-3.7,0-5.56-1.82-5.56-5.47v-151.67c0-2.04.89-3.06,2.67-3.06.89,0,1.63.22,2.22.66.59.44,1.33,1.17,2.22,2.19l109.55,111.4v-108.77c0-3.65,1.85-5.47,5.55-5.47h9.56c3.7,0,5.55,1.83,5.55,5.47Z"/>
      <path class="cls-1" d="m1291.86,685.41v151.89c0,1.9-.82,2.84-2.44,2.84-.74,0-1.41-.18-2-.55-.59-.36-1.41-1.13-2.44-2.3l-109.77-112.28v109.65c0,3.65-1.85,5.47-5.55,5.47h-9.55c-3.7,0-5.56-1.82-5.56-5.47v-151.67c0-2.04.89-3.06,2.67-3.06.89,0,1.63.22,2.22.66.59.44,1.33,1.17,2.22,2.19l109.55,111.4v-108.77c0-3.65,1.85-5.47,5.55-5.47h9.56c3.7,0,5.55,1.83,5.55,5.47Z"/>
      <path class="cls-1" d="m1011.67,697.01h-88.04v56.69h77.18c3.69,0,5.54,1.83,5.54,5.47v6.78c0,3.65-1.85,5.47-5.54,5.47h-77.18l-.22,63.25c0,3.65-1.85,5.47-5.54,5.47h-9.54c-3.7,0-5.54-1.82-5.54-5.47v-149.27c0-3.65,1.85-5.47,5.54-5.47h103.35c3.69,0,5.54,1.83,5.54,5.47v6.13c0,3.65-1.85,5.47-5.54,5.47Z"/>
      <path class="cls-1" d="m1097.32,685.41v149.27c0,3.65-2.03,5.47-6.09,5.47h-10.71c-4.06,0-6.09-1.82-6.09-5.47v-149.27c0-3.65,2.03-5.47,6.09-5.47h10.71c4.06,0,6.09,1.83,6.09,5.47Z"/>
      <path class="cls-1" d="m1394.85,685.41v149.27c0,3.65-2.03,5.47-6.09,5.47h-10.71c-4.06,0-6.09-1.82-6.09-5.47v-149.27c0-3.65,2.03-5.47,6.09-5.47h10.71c4.06,0,6.09,1.83,6.09,5.47Z"/>
      <path class="cls-1" d="m1566.5,685.41v6.13c0,3.65-1.77,5.47-5.32,5.47h-41.9v137.67c0,3.65-1.77,5.47-5.32,5.47h-9.15c-3.55,0-5.32-1.82-5.32-5.47v-137.67h-42.11c-3.55,0-5.32-1.82-5.32-5.47v-6.13c0-3.65,1.77-5.47,5.32-5.47h103.8c3.54,0,5.32,1.83,5.32,5.47Z"/>
      <path class="cls-1" d="m1732.6,679.94h12.08c3.28,0,4.92,1.17,4.92,3.5,0,.88-.37,1.9-1.12,3.06l-57.25,93.02v55.15c0,3.65-1.87,5.47-5.59,5.47h-9.84c-3.73,0-5.59-1.82-5.59-5.47v-55.59l-56.81-92.58c-.75-1.17-1.12-2.19-1.12-3.06,0-2.33,1.64-3.5,4.92-3.5h11.85c2.98,0,5.22,1.24,6.71,3.72l44.95,75.29,45.18-75.29c1.49-2.48,3.73-3.72,6.71-3.72Z"/>
    </g>
    <g>
      <path class="cls-1" d="m327.52,1070c-22.11,0-40.47-7.75-55.09-23.25-14.62-15.5-21.93-34.45-21.93-56.85s7.31-41.35,21.93-56.85c14.62-15.5,32.98-23.25,55.09-23.25,13.26,0,25.49,3.23,36.69,9.68,11.19,6.45,19.93,15.17,26.21,26.14l-3.64,2.23c-5.85-10.38-14.05-18.65-24.6-24.81-10.56-6.15-22.11-9.23-34.66-9.23-20.96,0-38.33,7.34-52.09,22.03-13.76,14.69-20.64,32.71-20.64,54.07s6.88,39.38,20.64,54.07c13.76,14.69,31.13,22.03,52.09,22.03,12.98,0,24.85-3.23,35.62-9.68,10.77-6.45,18.93-15.09,24.49-25.92l3.85,2.23c-6.13,11.42-14.9,20.51-26.31,27.26-11.41,6.75-23.96,10.12-37.65,10.12Z"/>
      <path class="cls-1" d="m553.62,1046.53c-15.05,15.65-33.2,23.47-54.44,23.47s-39.4-7.82-54.44-23.47c-15.05-15.65-22.57-34.52-22.57-56.63s7.52-40.98,22.57-56.63c15.04-15.65,33.19-23.47,54.44-23.47s39.4,7.83,54.44,23.47c15.04,15.65,22.57,34.53,22.57,56.63s-7.52,40.98-22.57,56.63Zm-105.89-2.78c14.19,14.84,31.34,22.25,51.45,22.25s37.26-7.42,51.45-22.25c14.19-14.83,21.29-32.78,21.29-53.85s-7.1-39.01-21.29-53.85c-14.19-14.83-31.34-22.25-51.45-22.25s-37.26,7.42-51.45,22.25c-14.19,14.84-21.29,32.79-21.29,53.85s7.09,39.02,21.29,53.85Z"/>
      <path class="cls-1" d="m719.38,909.79h4.28v160.21h-4.28l-98.41-152.43v152.43h-4.28v-160.21h4.28l98.41,152.43v-152.43Z"/>
      <path class="cls-1" d="m818.3,1070c-13.83,0-25.39-3.23-34.66-9.68-9.27-6.45-15.33-14.65-18.18-24.59l3.64-2.23c2.57,9.64,8.16,17.47,16.79,23.47,8.63,6.01,19.43,9.01,32.41,9.01,13.83,0,24.35-3.52,31.55-10.57,7.2-7.04,10.8-15.91,10.8-26.59,0-9.49-3.67-17.09-11.02-22.81-7.35-5.71-18.01-10.72-31.98-15.02-7.56-2.22-13.76-4.37-18.61-6.45-4.85-2.08-9.56-4.67-14.12-7.79-4.57-3.12-7.95-6.9-10.16-11.35-2.21-4.45-3.32-9.57-3.32-15.35,0-11.27,4.1-20.8,12.3-28.59,8.2-7.79,18.79-11.68,31.77-11.68,11.41,0,20.93,2.89,28.56,8.68,7.63,5.79,13.16,13.35,16.58,22.7l-3.42,2c-7.27-19.58-21.18-29.37-41.72-29.37-12.41,0-22.14,3.64-29.2,10.9-7.06,7.27-10.59,15.73-10.59,25.37,0,4.3.86,8.2,2.57,11.68,1.71,3.49,3.64,6.34,5.78,8.57,2.14,2.23,5.49,4.49,10.05,6.79,4.56,2.3,8.38,4.04,11.44,5.23,3.07,1.19,7.66,2.82,13.8,4.9,14.97,5.04,26.31,10.61,34.01,16.69,7.7,6.08,11.55,14.39,11.55,24.92,0,12.31-4.17,22.25-12.51,29.82-8.34,7.57-19.72,11.35-34.12,11.35Z"/>
      <path class="cls-1" d="m995.31,1055.22c-9.63,9.85-22.64,14.78-39.04,14.78s-29.41-4.93-39.04-14.78c-9.63-9.85-14.44-22.6-14.44-38.25v-107.18h4.28v107.18c0,14.14,4.24,25.84,12.73,35.09,8.48,9.25,20.64,13.88,36.47,13.88s27.99-4.63,36.47-13.88c8.48-9.25,12.73-20.95,12.73-35.09v-107.18h4.28v107.18c0,15.65-4.81,28.4-14.44,38.25Z"/>
      <path class="cls-1" d="m1067.27,1065.88h74.87v4.12h-79.15v-160.21h4.28v156.09Z"/>
      <path class="cls-1" d="m1257.22,908.81v4.14h-49.2v157.05h-4.28v-157.05h-49.2v-4.14h102.68Z"/>
      <path class="cls-1" d="m1291.86,909.79h4.28v160.21h-4.28v-160.21Z"/>
      <path class="cls-1" d="m1447.79,909.79h4.28v160.21h-4.28l-98.41-152.43v152.43h-4.28v-160.21h4.28l98.41,152.43v-152.43Z"/>
      <path class="cls-1" d="m1646.61,998.13v2.22c0,19.58-6.56,36.09-19.68,49.51-13.12,13.43-30.09,20.14-50.91,20.14-23.1,0-42.07-7.71-56.9-23.14-14.83-15.43-22.25-34.41-22.25-56.96s7.31-41.35,21.93-56.85c14.62-15.5,32.98-23.25,55.09-23.25,13.4,0,25.78,3.34,37.12,10.01,11.34,6.68,20.07,15.58,26.21,26.7l-3.64,2.23c-5.71-10.68-13.91-19.17-24.6-25.48-10.7-6.3-22.39-9.46-35.08-9.46-20.96,0-38.33,7.34-52.09,22.03-13.76,14.69-20.64,32.71-20.64,54.07s7.02,39.38,21.07,54.07c14.05,14.69,31.98,22.03,53.8,22.03,19.39,0,35.22-6.12,47.49-18.36,12.26-12.24,18.61-27.4,19.04-45.5h-71.02v-4.01h75.09Z"/>
    </g>
  </g>
</svg>