<?xml version="1.0" encoding="UTF-8"?>
<svg id="Isotipo" xmlns="http://www.w3.org/2000/svg" viewBox="0 0 1920 1080">
  <defs>
    <style>
      .cls-1 {
        fill: #fff;
        stroke-width: 0px;
      }
    </style>
  </defs>
  <path class="cls-1" d="m1622.24,243.74c-56.15-29.17-116.44-41.59-175.63-37.62-67.05,4.5-115.38,31.55-168.82,60.61-37.48,20.38-66.64,41.14-86.75,56.79,27.92-1.81,55.84-3.62,83.76-5.43-12.02,24.96-24.04,49.91-36.07,74.87,18.44-17.17,46.46-40.37,84.36-61.74,37.54-21.17,75.05-42.63,128.8-46.24,45.16-3.03,91.17,6.45,134.01,28.7,85.62,44.49,136.73,128.65,136.73,225.15s-51.11,180.63-136.73,225.13c-85.62,44.48-183.86,37.92-262.81-17.54l-295.47-207.58c-22.84-16.06-45.69-32.12-68.53-48.18l-318.69-223.92c-103.49-72.69-232.26-81.29-344.48-22.99-112.22,58.32-179.21,168.61-179.21,295.07v.02c0,126.46,66.99,236.75,179.21,295.07,49.35,25.62,101.9,38.34,154.1,38.34,66.5,0,132.4-20.61,190.38-61.35l53.54-37.62,38.13-26.79,3.69-2.59c6.2-4.52,12.4-9.03,18.6-13.55,8.13-24.08,16.26-48.15,24.39-72.23-26.97,5.24-53.93,10.48-80.9,15.73-3.33,2.46-6.66,4.92-9.98,7.38l-4.11,2.89-33.17,23.31-55.51,39.01c-78.95,55.47-177.21,62.02-262.83,17.54-85.62-44.49-136.73-128.65-136.73-225.15s51.11-180.63,136.73-225.13c37.66-19.56,77.74-29.25,117.58-29.25,50.71,0,101.01,15.72,145.25,46.79l295.45,207.58c22.85,16.05,45.7,32.11,68.55,48.16l318.69,223.92c103.47,72.71,232.24,81.31,344.46,23.01,112.22-58.32,179.21-168.61,179.21-295.09s-66.99-236.75-179.21-295.07Z"/>
  <line class="cls-1" x1="732.07" y1="746.47" x2="735.76" y2="743.88"/>
  <path class="cls-1" d="m598.52,117.75c98.8,46.15,136,80.53,332.71,280.12-2.31-1.69-267.89-270.64-488.18-270.64-1.69,0-255.87-25.42-382.96,286.37-.42,0,.64-17.16,7.07-44.03C122.93,136.57,381.45,16.35,598.52,117.75Z"/>
  <path class="cls-1" d="m1321.48,962.25c-98.8-46.15-136-80.53-332.71-280.12,2.31,1.69,267.89,270.64,488.18,270.64,1.69,0,255.87,25.42,382.96-286.38.42,0-.64,17.16-7.07,44.03-55.78,233-314.3,353.21-531.36,251.82Z"/>
</svg>