<?xml version="1.0" encoding="UTF-8" standalone="no"?>
<!-- Created with Inkscape (http://www.inkscape.org/) -->

<svg
   width="508mm"
   height="285.75mm"
   viewBox="0 0 508 285.75"
   version="1.1"
   id="svg1717"
   xml:space="preserve"
   inkscape:version="1.2.2 (b0a8486541, 2022-12-01)"
   sodipodi:docname="[INKSCAPE]LogoDINADECO.svg"
   xmlns:inkscape="http://www.inkscape.org/namespaces/inkscape"
   xmlns:sodipodi="http://sodipodi.sourceforge.net/DTD/sodipodi-0.dtd"
   xmlns="http://www.w3.org/2000/svg"
   xmlns:svg="http://www.w3.org/2000/svg"><sodipodi:namedview
     id="namedview1719"
     pagecolor="#a4a4a4"
     bordercolor="#eeeeee"
     borderopacity="1"
     inkscape:showpageshadow="0"
     inkscape:pageopacity="0"
     inkscape:pagecheckerboard="0"
     inkscape:deskcolor="#505050"
     inkscape:document-units="mm"
     showgrid="false"
     inkscape:zoom="0.38663019"
     inkscape:cx="642.73305"
     inkscape:cy="508.2376"
     inkscape:window-width="1920"
     inkscape:window-height="1017"
     inkscape:window-x="0"
     inkscape:window-y="30"
     inkscape:window-maximized="1"
     inkscape:current-layer="layer1" /><defs
     id="defs1714" /><g
     inkscape:label="Layer 1"
     inkscape:groupmode="layer"
     id="layer1"><g
       id="g2021"
       transform="matrix(1.3346116,0,0,1.3346116,-84.97163,-363.99733)"><path
         style="fill:#f9b720;stroke-width:0.0488287"
         d="m 129.6624,384.37696 c -1.10877,-0.16305 -1.89438,-0.93625 -2.25407,-2.21847 l -0.10958,-0.39063 0.0138,-21.9485 c 0.009,-14.36505 0.0309,-22.13408 0.0634,-22.48562 0.16141,-1.74786 0.88012,-2.75809 2.13827,-3.00562 0.40732,-0.0801 1.10797,-0.0363 1.6123,0.10092 0.22533,0.0613 0.65383,0.23456 0.95221,0.38502 0.32893,0.16585 3.21465,2.01147 7.32965,4.68779 3.73293,2.42783 11.21468,7.29322 16.62613,10.81198 5.41144,3.51875 10.00378,6.51849 10.2052,6.66608 0.98956,0.7251 1.58572,1.51173 1.80985,2.38807 0.11911,0.4657 0.12713,1.26292 0.017,1.68947 -0.16966,0.65714 -0.67901,1.41767 -1.29315,1.93083 -0.55682,0.46526 -0.22152,0.25867 -8.88341,5.47349 -2.61844,1.57641 -7.65024,4.60889 -11.18178,6.73885 -15.01667,9.05692 -14.391,8.68896 -15.27431,8.98285 -0.65621,0.21833 -1.19921,0.27764 -1.77145,0.19349 z"
         id="path1912" /><path
         style="fill:#2392d0;stroke-width:0.0488287"
         d="m 117.53301,441.03784 c -1.22326,-0.0746 -1.96313,-0.12949 -2.56351,-0.19024 -8.2163,-0.83129 -15.629262,-3.52331 -22.658564,-8.22847 -10.230409,-6.84785 -16.60665,-15.91406 -19.013404,-27.03465 -1.078502,-4.9833 -1.32034,-9.97727 -0.709987,-14.66123 0.902385,-6.92507 3.625857,-13.40414 8.179261,-19.45824 6.7741,-9.0067 15.79697,-14.95993 26.853974,-17.71809 1.89639,-0.47305 3.70302,-0.82845 5.71296,-1.12387 2.22309,-0.32674 3.84795,-0.46705 5.4444,-0.47011 1.08693,-0.002 1.28594,-0.0501 1.44933,-0.34986 0.0849,-0.1558 0.0879,-0.58877 0.0722,-10.46539 -0.0117,-7.34389 -5.8e-4,-10.49217 0.0386,-10.96204 0.18211,-2.18409 0.99839,-3.9646 2.28703,-4.98864 0.98894,-0.78587 2.35011,-1.15858 3.72747,-1.02065 1.31743,0.13193 2.73218,0.61778 4.10984,1.41138 0.47497,0.27361 6.42519,4.1187 33.43322,21.60484 5.33087,3.45143 9.90124,6.43041 10.15637,6.61995 1.97225,1.46518 3.15247,3.18418 3.54884,5.16888 0.0613,0.30686 0.0851,0.65656 0.084,1.23389 -10e-4,0.6946 -0.0192,0.8814 -0.12988,1.35487 -0.40001,1.71149 -1.41148,3.20714 -2.95491,4.36941 -1.35424,1.01979 -3.41765,2.32071 -7.18875,4.5323 -0.65796,0.38587 -3.67924,2.20571 -6.71394,4.04408 -14.87668,9.01205 -29.28016,17.71048 -29.75896,17.9718 -1.08255,0.59081 -2.25177,1.04546 -3.34691,1.30144 -0.71589,0.16734 -1.8032,0.21227 -2.44219,0.10093 -1.09592,-0.19097 -2.05655,-0.66969 -2.84344,-1.417 -0.96008,-0.91178 -1.5369,-2.11568 -1.88094,-3.92575 l -0.1089,-0.57295 -0.002,-8.4962 c -0.002,-8.23199 -0.004,-8.50208 -0.094,-8.6855 -0.14795,-0.30332 -0.35497,-0.36986 -1.15468,-0.37115 -2.29699,-0.004 -5.40849,0.53811 -7.98035,1.38965 -9.05156,2.99698 -16.023176,10.23216 -18.115109,18.79995 -0.243295,0.99645 -0.416407,1.95961 -0.544118,3.02738 -0.126043,1.05382 -0.126048,4.17078 -8e-6,5.22467 0.495196,4.14059 1.829572,7.86246 4.008921,11.18177 0.489005,0.74479 1.200428,1.70207 1.778111,2.39261 0.574677,0.68694 2.303013,2.38935 3.084023,3.03776 4.81371,3.99643 9.91047,6.18615 15.89374,6.8284 0.9935,0.10665 3.935,0.14931 5.11055,0.0741 6.75552,-0.43209 12.24884,-2.50805 16.93682,-6.40055 0.79321,-0.65862 2.76461,-2.63328 3.43636,-3.44206 2.78598,-3.35431 4.458,-6.46273 5.37121,-9.98547 0.54836,-2.11534 0.78208,-4.44801 0.67117,-6.69883 -0.24494,-4.97111 -0.44658,-9.36627 -0.4466,-9.73466 -3e-5,-0.37596 0.0186,-0.47942 0.12443,-0.69183 0.0684,-0.13737 0.19479,-0.30238 0.28076,-0.36671 0.086,-0.0643 0.78253,-0.48706 1.54792,-0.93943 2.27474,-1.34443 7.49881,-4.44972 12.93961,-7.69157 2.80643,-1.67219 5.19436,-3.07997 5.3065,-3.12839 l 0.20388,-0.0881 0.0525,0.15048 c 0.0686,0.19685 0.0711,22.80788 0.003,24.62351 -0.0554,1.47144 -0.11174,2.25374 -0.24779,3.44242 -1.08887,9.51366 -5.42186,18.10653 -12.8618,25.50664 -5.14498,5.11742 -11.2863,8.89264 -18.23753,11.21106 -4.44907,1.48388 -9.44948,2.40394 -14.59978,2.68632 -0.79962,0.0438 -4.60708,0.0562 -5.24908,0.0171 z m 13.38884,-56.68562 c 0.20453,-0.0422 0.53313,-0.14087 0.73023,-0.21917 0.86415,-0.34328 0.30642,-0.0133 15.05608,-8.90776 4.44464,-2.68025 9.48742,-5.71944 11.20619,-6.75377 6.73031,-4.05021 8.07059,-4.86472 8.44071,-5.12956 0.21119,-0.15112 0.5781,-0.47783 0.81537,-0.72601 0.34339,-0.3592 0.47695,-0.54355 0.65471,-0.9037 0.53972,-1.09348 0.4791,-2.24107 -0.17656,-3.34284 -0.20719,-0.34816 -0.83541,-0.99284 -1.31128,-1.34564 -0.20142,-0.14932 -1.82741,-1.22178 -3.61332,-2.38323 -24.20874,-15.74401 -30.12098,-19.57849 -30.49353,-19.77711 -0.54901,-0.29269 -1.19401,-0.50936 -1.73342,-0.58229 -1.32551,-0.17923 -2.39478,0.45407 -2.86187,1.69503 -0.29607,0.78658 -0.27155,-0.50648 -0.31783,16.76303 -0.0233,8.68785 -0.0367,18.80637 -0.0298,22.48562 l 0.0125,6.68953 0.11255,0.36542 c 0.33351,1.08288 1.06975,1.84849 1.99232,2.07179 0.38732,0.0937 1.0648,0.094 1.51692,6.4e-4 z m 37.12446,-38.31942 c -0.65797,-0.41032 -2.51468,-1.56736 -4.12603,-2.57121 -1.61135,-1.00384 -4.58868,-2.86822 -6.61629,-4.14305 -2.02761,-1.27483 -4.53252,-2.8433 -5.56647,-3.48548 -1.03395,-0.64219 -1.96501,-1.24841 -2.06902,-1.34716 -0.10402,-0.0987 -0.23526,-0.27842 -0.29165,-0.39927 -0.10195,-0.21849 -0.10245,-0.24263 -0.0879,-4.27251 0.0115,-3.18424 0.0298,-4.17312 0.0855,-4.61431 0.43429,-3.43691 2.42421,-5.57661 5.85431,-6.29495 1.32639,-0.27777 3.04515,-0.41362 4.82269,-0.38116 1.50188,0.0274 2.20746,0.1071 3.33171,0.37626 2.92068,0.69926 4.92088,2.53566 5.59454,5.13639 0.27046,1.04413 0.25524,0.42201 0.27454,11.22217 0.01,5.49201 0.0117,10.33081 0.004,10.75289 l -0.0137,0.76742 z"
         id="path1910" /><path
         style="fill:#224093;stroke-width:0.0488287"
         d="m 296.58105,419.27259 c -0.49451,-0.0942 -0.6702,-0.16031 -0.80387,-0.30259 l -0.11705,-0.12458 -0.0125,-4.50052 c -0.0143,-5.11361 -0.0433,-4.74191 0.38775,-4.95582 0.43685,-0.21678 2.00667,-0.23584 2.95614,-0.0359 2.63479,0.55484 3.85106,2.59283 3.35292,5.61821 -0.22931,1.39274 -0.64196,2.26075 -1.44175,3.03272 -0.60749,0.58638 -1.30656,0.97904 -2.13475,1.19909 -0.48499,0.12885 -1.67615,0.16665 -2.18685,0.0694 z m 1.8821,-1.47106 c 0.51466,-0.12131 1.09142,-0.42044 1.42598,-0.73955 1.06553,-1.01634 1.3364,-3.53904 0.55143,-5.13545 -0.44685,-0.90876 -1.38243,-1.4168 -2.50989,-1.36295 -0.48771,0.0233 -0.7102,0.11894 -0.80504,0.34606 -0.0823,0.197 -0.10405,5.38125 -0.025,5.94794 0.0697,0.49941 0.21539,0.7711 0.48768,0.90925 0.25302,0.12837 0.44513,0.13599 0.87483,0.0347 z m -98.95892,1.41714 c -1.07408,-0.23332 -1.8434,-1.07367 -2.19197,-2.39436 -0.11072,-0.41948 -0.12835,-0.5856 -0.12926,-1.21815 -9.3e-4,-0.6395 0.0154,-0.79438 0.12853,-1.22072 0.0714,-0.26911 0.24315,-0.7171 0.38256,-0.99804 0.5681,-1.14483 1.44033,-1.65793 2.57398,-1.5142 0.9863,0.12506 1.60068,0.76169 2.00032,2.07278 0.35874,1.17693 0.31513,1.62299 -0.18354,1.87739 -0.30695,0.1566 -0.74263,0.20243 -1.97162,0.2074 -1.32097,0.005 -1.36633,0.0154 -1.44751,0.3199 -0.0919,0.34486 0.0659,0.71801 0.45553,1.07718 0.54164,0.49927 1.14421,0.59725 2.15569,0.35053 0.44623,-0.10885 0.58086,-0.0754 0.68327,0.16968 0.039,0.0933 0.0709,0.2934 0.0709,0.44465 0,0.24597 -0.017,0.29201 -0.161,0.43601 -0.36498,0.36498 -1.56803,0.56327 -2.36586,0.38995 z m 1.38333,-4.42563 c 0.1845,-0.18449 0.18572,-0.79981 0.002,-1.15102 -0.27385,-0.52433 -0.99317,-0.72374 -1.53903,-0.42665 -0.30577,0.16642 -0.46668,0.34511 -0.62924,0.69874 -0.14723,0.32032 -0.13424,0.67865 0.031,0.85453 0.10261,0.10923 0.12426,0.11136 1.08153,0.10625 0.81748,-0.004 0.98932,-0.0177 1.05344,-0.0819 z m 81.03917,4.45062 c -0.36959,-0.0776 -0.86899,-0.37905 -1.18188,-0.71352 -1.06925,-1.14304 -1.23835,-3.67848 -0.35716,-5.35538 0.66842,-1.27202 1.77817,-1.56821 3.32033,-0.88619 0.14838,0.0656 0.27804,0.11931 0.28812,0.11931 0.0101,0 0.0183,-0.73718 0.0183,-1.63819 0,-1.83691 0.006,-1.87228 0.321,-1.97633 0.0971,-0.032 0.32795,-0.0496 0.51407,-0.0391 0.28939,0.0163 0.35704,0.0383 0.47162,0.15284 l 0.13376,0.13376 0.0131,4.89965 c 0.0126,4.68943 0.009,4.90439 -0.0764,5.01021 -0.1655,0.20438 -0.82024,0.21926 -1.03648,0.0236 -0.10895,-0.0986 -0.19352,-0.36073 -0.19392,-0.60109 l -4.8e-4,-0.16264 -0.35401,0.32424 c -0.6208,0.5686 -1.31012,0.82847 -1.88023,0.70883 z m 1.24566,-1.51223 c 0.59088,-0.2682 0.85305,-0.96176 0.84951,-2.24734 -0.003,-1.04603 -0.17711,-1.64452 -0.58637,-2.01427 -0.74168,-0.67006 -1.73861,-0.12168 -2.04183,1.12314 -0.11116,0.45635 -0.11092,1.49125 4.9e-4,1.91117 0.16971,0.63999 0.45361,1.05753 0.8381,1.23264 0.25874,0.11784 0.67398,0.11548 0.94016,-0.005 z m 5.98577,1.51114 c -0.59848,-0.1079 -1.09415,-0.38891 -1.53546,-0.87053 -0.89553,-0.97731 -1.20965,-2.8202 -0.73322,-4.3017 0.43165,-1.34229 1.45504,-2.24549 2.54694,-2.24782 1.38653,-0.003 2.42205,1.30409 2.5228,3.18437 l 0.0281,0.52379 -0.18997,0.18984 c -0.27314,0.27294 -0.48418,0.30613 -2.07872,0.32689 -1.44356,0.0188 -1.52897,0.033 -1.58754,0.26389 -0.0695,0.27403 0.23409,0.90821 0.57017,1.19101 0.5054,0.42526 1.12353,0.50724 2.06141,0.2734 0.4476,-0.1116 0.59697,-0.0769 0.69512,0.16171 0.19633,0.47719 0.12134,0.84109 -0.20794,1.00907 -0.50684,0.25858 -1.51114,0.40073 -2.09166,0.29608 z m 0.20708,-4.35091 c 0.0238,-0.0386 0.16516,-0.0454 0.46669,-0.0227 0.51722,0.0391 0.60477,0.004 0.67995,-0.27562 0.14443,-0.53638 -0.12232,-1.16332 -0.59939,-1.4087 -0.20841,-0.10721 -0.70584,-0.12647 -0.97123,-0.0376 -0.45918,0.15375 -0.73046,0.56739 -0.76411,1.16515 -0.0299,0.53125 0.005,0.56546 0.56587,0.54733 0.26698,-0.009 0.45139,0.006 0.47049,0.0366 0.0412,0.0666 0.109,0.0646 0.15173,-0.004 z m 16.24376,4.32701 c -1.0569,-0.22959 -1.85952,-1.09112 -2.19531,-2.35645 -0.10826,-0.40794 -0.12655,-0.58137 -0.12996,-1.23165 -0.005,-0.94047 0.0935,-1.38556 0.48271,-2.1829 0.34293,-0.70253 0.70703,-1.10949 1.21354,-1.35641 0.91803,-0.44753 1.97154,-0.2857 2.62929,0.40388 0.31717,0.33251 0.51653,0.70472 0.74647,1.39364 0.3095,0.92731 0.32631,1.42153 0.0587,1.7263 -0.29656,0.33776 -0.64835,0.40348 -2.20733,0.41236 -0.67139,0.004 -1.25686,0.0255 -1.30103,0.0482 -0.0926,0.0475 -0.18824,0.2916 -0.18824,0.48042 0,0.20801 0.229,0.60955 0.48329,0.84741 0.56613,0.52954 1.14617,0.62663 2.18966,0.36649 0.37346,-0.0931 0.41106,-0.0947 0.52248,-0.0217 0.13797,0.0904 0.22191,0.34489 0.2223,0.674 4.9e-4,0.41511 -0.29164,0.61894 -1.13744,0.79365 -0.44583,0.0921 -0.9731,0.0931 -1.38915,0.003 z m 0.87301,-4.34734 c 0.3649,0.0318 0.3878,0.0278 0.50534,-0.0898 0.10936,-0.10937 0.12299,-0.16291 0.12204,-0.47935 -0.002,-0.54317 -0.19958,-0.91497 -0.59514,-1.11782 -0.2288,-0.11734 -0.79147,-0.12646 -1.05332,-0.0171 -0.43482,0.18164 -0.693,0.61786 -0.69377,1.17218 -6.8e-4,0.50244 0.0369,0.53736 0.56047,0.5213 0.23193,-0.007 0.45822,0.007 0.50285,0.0325 0.0513,0.0287 0.11581,0.0269 0.17524,-0.005 0.0579,-0.031 0.2409,-0.0375 0.47629,-0.017 z m 53.17166,4.34557 c -1.09215,-0.23685 -1.8972,-1.05626 -2.20425,-2.24354 -0.13071,-0.50543 -0.17997,-1.60396 -0.0976,-2.17661 0.0748,-0.52027 0.29669,-1.19105 0.51986,-1.57183 0.54796,-0.93496 1.2351,-1.36641 2.17146,-1.36344 1.1888,0.004 1.86578,0.60198 2.33133,2.06009 0.34397,1.07733 0.31555,1.59126 -0.10231,1.84951 -0.32714,0.20218 -0.73195,0.25248 -2.0891,0.25954 l -1.27086,0.007 -0.0949,0.12065 c -0.32483,0.41294 0.22551,1.33774 0.96729,1.62543 0.36506,0.14159 1.01755,0.15077 1.47691,0.0208 0.66644,-0.18858 0.82391,-0.0983 0.8665,0.49696 0.0222,0.30988 0.014,0.34747 -0.10588,0.49 -0.32491,0.38613 -1.54228,0.60501 -2.36845,0.42585 z m 0.28945,-4.26209 c 0,-0.1067 0.24139,-0.14787 0.55866,-0.0953 0.41909,0.0694 0.53973,0.0186 0.61443,-0.25881 0.11869,-0.44074 -0.0938,-1.09798 -0.43049,-1.33127 -0.34085,-0.23621 -0.92916,-0.2624 -1.3227,-0.0589 -0.33316,0.17228 -0.58236,0.62852 -0.62571,1.14551 -0.0249,0.29676 -0.0164,0.34526 0.0762,0.43791 0.0894,0.0894 0.16146,0.1043 0.50703,0.10494 0.22156,4.9e-4 0.43579,0.0221 0.47608,0.0481 0.0908,0.0587 0.14648,0.0616 0.14648,0.008 z m 10.29941,4.27383 c -0.87193,-0.24558 -1.38263,-1.03353 -1.38263,-2.1332 0,-0.7498 0.22448,-1.34151 0.67629,-1.78262 0.45417,-0.44341 1.4132,-0.81921 2.11331,-0.82811 0.44508,-0.006 0.516,-0.0639 0.50805,-0.41682 -0.008,-0.33719 -0.16346,-0.60745 -0.44619,-0.77368 -0.20057,-0.11792 -0.26606,-0.12948 -0.73295,-0.12938 -0.45863,0 -0.54617,0.0149 -0.83009,0.14062 -0.45746,0.20255 -0.58848,0.19701 -0.6992,-0.0295 -0.13765,-0.28166 -0.15701,-0.66532 -0.0427,-0.84638 0.11321,-0.17933 0.65375,-0.47549 1.06185,-0.58179 0.32769,-0.0854 0.92052,-0.0958 1.24122,-0.0219 0.83854,0.19322 1.51836,0.86133 1.80954,1.77837 0.0988,0.31126 0.11262,0.49454 0.15435,2.05081 0.0252,0.93995 0.0381,1.98366 0.0287,2.31936 -0.0151,0.53733 -0.0313,0.63548 -0.1356,0.8203 -0.13907,0.24648 -0.36359,0.40042 -0.58401,0.40042 -0.12429,0 -0.20541,-0.0499 -0.38615,-0.23739 -0.32659,-0.33884 -0.38649,-0.34687 -0.78622,-0.10535 -0.62381,0.37692 -1.13213,0.49895 -1.56752,0.37631 z m 1.43377,-1.41152 c 0.38288,-0.21137 0.57807,-0.67892 0.59687,-1.4297 0.0181,-0.72431 -0.0649,-0.80787 -0.71206,-0.71636 -0.87272,0.12342 -1.24036,0.45508 -1.29955,1.17236 -0.0441,0.53416 0.11446,0.9142 0.44415,1.06471 0.2138,0.0976 0.7139,0.0507 0.97059,-0.091 z m 8.97019,1.38073 c -1.22485,-0.25973 -2.17549,-0.99067 -2.73431,-2.10241 -0.40702,-0.80976 -0.55378,-1.56693 -0.55368,-2.85648 0,-1.0331 0.0837,-1.57497 0.35974,-2.33132 0.48987,-1.34229 1.64652,-2.40839 2.92825,-2.69902 0.51169,-0.11602 1.31214,-0.10816 1.92693,0.0189 0.78242,0.16175 0.8985,0.30145 0.78188,0.9409 -0.13087,0.71758 -0.15289,0.73296 -0.82646,0.57731 -0.60211,-0.13913 -1.41043,-0.12063 -1.85793,0.0425 -0.83473,0.30435 -1.37292,0.97973 -1.67114,2.0971 -0.11243,0.42129 -0.1268,0.56796 -0.12781,1.30474 -10e-4,0.74059 0.0124,0.88035 0.12454,1.29628 0.30176,1.11949 0.85004,1.81202 1.66087,2.09784 0.46719,0.16468 1.23507,0.18511 1.88948,0.0503 0.50401,-0.10385 0.50962,-0.10394 0.60375,-0.01 0.18873,0.18873 0.24274,0.90777 0.0873,1.16266 -0.24639,0.40407 -1.60604,0.61945 -2.59144,0.4105 z m 22.12149,0.0392 c -0.54007,-0.0892 -0.98636,-0.3763 -1.26298,-0.81233 -0.26184,-0.41274 -0.35044,-0.8163 -0.39903,-1.81752 -0.0559,-1.15213 -0.0739,-4.24494 -0.0253,-4.35977 0.14193,-0.33565 1.25768,-0.33309 1.36439,0.003 0.0153,0.0483 0.0371,1.02086 0.0482,2.16121 0.0187,1.90571 0.0286,2.10457 0.12198,2.45927 0.16917,0.64237 0.42991,0.88167 0.9563,0.87766 0.4719,-0.004 0.83772,-0.25114 1.00166,-0.67784 0.11796,-0.30701 0.14156,-0.72315 0.1525,-2.68882 0.0129,-2.30968 0.005,-2.26252 0.39393,-2.36763 0.387,-0.10459 0.95633,0.0233 1.03726,0.23302 0.0185,0.048 0.0458,1.56126 0.0606,3.36281 l 0.027,3.27556 -0.12889,0.10137 c -0.17179,0.13514 -0.53801,0.1823 -0.78373,0.10091 -0.24568,-0.0814 -0.35868,-0.27097 -0.40062,-0.67217 l -0.032,-0.30655 -0.24825,0.28301 c -0.58868,0.67112 -1.21989,0.95427 -1.88301,0.84468 z M 205.62,419.19405 c -1.04225,-0.20921 -1.85541,-1.01359 -2.16914,-2.14574 -0.44123,-1.59223 -0.0918,-3.38025 0.84429,-4.32004 0.62743,-0.62992 1.22767,-0.85569 2.27701,-0.85646 0.69238,-4.9e-4 0.90996,0.0439 1.07475,0.21929 0.0967,0.10296 0.11484,0.17192 0.11225,0.42732 -0.004,0.40599 -0.10944,0.64747 -0.32781,0.7516 -0.14678,0.07 -0.23368,0.075 -0.60085,0.0344 -0.70396,-0.0778 -1.09339,0.0296 -1.45531,0.40117 -0.39029,0.40074 -0.608,1.05508 -0.608,1.82737 0,1.04357 0.36672,1.81603 1.01276,2.13328 0.25792,0.12665 0.31534,0.13593 0.74338,0.1201 0.97066,-0.0359 0.91662,-0.0406 1.04831,0.0911 0.26975,0.26974 0.27187,0.9741 0.003,1.14996 -0.24767,0.16228 -1.4614,0.26572 -1.95511,0.16663 z m 5.01425,-0.049 c -0.49657,-0.13008 -0.81121,-0.31134 -1.18342,-0.68173 -0.37529,-0.37346 -0.66869,-0.9011 -0.82848,-1.48996 -0.14897,-0.54894 -0.18633,-1.63741 -0.0776,-2.26113 0.20235,-1.161 0.7971,-2.07734 1.63363,-2.51692 0.46648,-0.24513 0.82033,-0.32698 1.41734,-0.32785 0.86741,-10e-4 1.18368,0.0718 1.30209,0.30076 0.14326,0.27703 0.0596,0.84139 -0.15676,1.05777 -0.1168,0.1168 -0.13795,0.12039 -0.49648,0.0843 -0.69003,-0.0695 -1.03912,-0.0527 -1.25558,0.0604 -0.60474,0.31604 -1.04515,1.23676 -1.0469,2.18862 -0.002,0.91054 0.44408,1.82088 1.04312,2.1303 0.25931,0.13395 0.64528,0.16471 1.12671,0.0898 0.49323,-0.0767 0.63484,-0.0471 0.73921,0.15475 0.10937,0.21148 0.14646,0.68278 0.0685,0.8709 -0.0809,0.19533 -0.25677,0.28201 -0.7474,0.36835 -0.54118,0.0952 -1.10588,0.0848 -1.53799,-0.0284 z m 8.35739,0.0296 c -1.02265,-0.24805 -1.81602,-1.18627 -2.10354,-2.48758 -0.10773,-0.48756 -0.10275,-1.68358 0.009,-2.20389 0.24444,-1.1364 0.81287,-1.96293 1.61061,-2.34192 0.4775,-0.22685 0.7932,-0.28521 1.42196,-0.26288 0.47306,0.0168 0.57036,0.0361 0.85148,0.16924 0.62412,0.29549 1.09633,0.79489 1.41396,1.49541 0.45275,0.99852 0.5116,2.43362 0.14567,3.55249 -0.35907,1.09792 -1.1593,1.90105 -2.08694,2.0945 -0.33421,0.0697 -0.9422,0.0623 -1.26236,-0.0154 z m 1.23016,-1.34083 c 0.39459,-0.17924 0.57568,-0.50385 0.77381,-1.3871 0.14571,-0.64952 0.15897,-1.06228 0.0536,-1.66681 -0.1765,-1.01213 -0.69831,-1.63738 -1.3665,-1.63738 -0.64376,0 -1.14296,0.56237 -1.31984,1.48683 -0.15387,0.80418 -0.0461,2.08493 0.22208,2.63888 0.12801,0.26442 0.43271,0.53518 0.67483,0.59966 0.30081,0.0801 0.74536,0.0644 0.96207,-0.0341 z m 21.61149,1.35723 c -0.57274,-0.17564 -1.04119,-0.77359 -1.20244,-1.53485 -0.0907,-0.428 -0.0908,-0.64387 -7.3e-4,-1.06911 0.15899,-0.75049 0.65115,-1.42057 1.25069,-1.70285 0.43158,-0.20319 1.27032,-0.42136 1.57816,-0.41051 0.35133,0.0124 0.43324,-0.0649 0.42565,-0.40183 -0.0136,-0.60353 -0.41098,-0.93221 -1.12549,-0.93093 -0.37099,6.8e-4 -0.7084,0.0808 -1.10514,0.26242 -0.15333,0.0702 -0.28812,0.12763 -0.29954,0.12763 -0.0114,0 -0.0745,-0.11536 -0.14011,-0.25635 -0.14605,-0.31369 -0.15612,-0.63648 -0.0265,-0.84905 0.17661,-0.28963 0.8852,-0.53928 1.66868,-0.5879 0.76165,-0.0473 1.3403,0.14606 1.7776,0.59391 0.51823,0.53074 0.68602,1.06386 0.76091,2.41776 0.0661,1.19459 0.0409,4.07628 -0.0362,4.15338 -0.0311,0.0311 -0.23263,0.0798 -0.44781,0.10817 -0.45626,0.0602 -0.55999,0.0186 -0.76593,-0.30766 -0.0674,-0.10674 -0.15686,-0.19407 -0.19884,-0.19407 -0.042,0 -0.22297,0.0849 -0.40222,0.18866 -0.63119,0.36539 -1.30005,0.51912 -1.71071,0.39318 z m 1.38949,-1.28852 c 0.29005,-0.0861 0.50962,-0.29746 0.66094,-0.63611 0.0867,-0.19402 0.1135,-0.36183 0.13057,-0.8173 0.0275,-0.73298 -0.0139,-0.81847 -0.39643,-0.81847 -0.28089,0 -0.73489,0.10398 -0.99695,0.22834 -0.48207,0.22876 -0.70576,0.75217 -0.59977,1.4034 0.1,0.61412 0.52564,0.84089 1.20164,0.64014 z m 5.75711,1.29155 c -0.59649,-0.11973 -1.22741,-0.49024 -1.56994,-0.92195 -0.499,-0.62894 -0.74374,-1.37768 -0.78361,-2.39733 -0.0799,-2.04398 0.82603,-3.54464 2.37568,-3.93526 0.4307,-0.10856 1.50586,-0.0798 1.76855,0.0474 0.25317,0.12253 0.35427,0.35416 0.31569,0.7233 -0.0379,0.36298 -0.14159,0.56576 -0.31091,0.60825 -0.0723,0.0182 -0.32387,0.006 -0.55901,-0.0275 -0.96986,-0.13727 -1.64851,0.28304 -1.98026,1.22645 -0.24057,0.68412 -0.19371,1.69513 0.10706,2.30988 0.38915,0.79539 1.19111,1.15382 2.07101,0.9256 0.31336,-0.0813 0.34896,-0.082 0.45931,-0.01 0.0756,0.0496 0.14,0.15934 0.17505,0.29852 0.11411,0.45319 0.0354,0.81524 -0.21258,0.97772 -0.27387,0.17945 -1.33483,0.27929 -1.85604,0.17468 z m 8.14338,-0.0252 c -0.6897,-0.18576 -1.33366,-0.70921 -1.68254,-1.36765 -0.65732,-1.24055 -0.65753,-3.18686 -4.9e-4,-4.43924 0.10106,-0.19262 0.3249,-0.49607 0.50939,-0.69055 0.53945,-0.56865 1.0873,-0.80055 1.89127,-0.80055 0.83515,0 1.32349,0.19606 1.88197,0.75555 0.72325,0.72458 1.06453,1.93078 0.95025,3.35856 -0.13644,1.70463 -0.92684,2.85892 -2.17868,3.18167 -0.36554,0.0943 -1.0255,0.0953 -1.37117,0.002 z m 1.02932,-1.24721 c 0.42669,-0.11847 0.84041,-0.70923 0.98889,-1.41205 0.11327,-0.53614 0.0711,-1.75043 -0.0772,-2.22171 -0.25561,-0.81254 -0.62741,-1.14642 -1.27747,-1.1472 -0.32738,-4.8e-4 -0.69808,0.20662 -0.90332,0.50443 -0.21956,0.31861 -0.40309,0.92483 -0.46799,1.54584 -0.045,0.43084 -0.0406,0.58976 0.0274,0.99258 0.2241,1.32597 0.8612,1.97369 1.70961,1.73811 z m 11.33535,1.22314 c -0.90799,-0.35009 -1.39532,-1.54844 -1.09971,-2.70426 0.24874,-0.97257 0.78621,-1.47819 1.9298,-1.81546 0.26023,-0.0768 0.58737,-0.13474 0.80213,-0.14219 0.42638,-0.0148 0.49183,-0.0698 0.49183,-0.4137 0,-0.33053 -0.16967,-0.63281 -0.43745,-0.77935 -0.43843,-0.23994 -1.21179,-0.18773 -1.79243,0.121 -0.31687,0.16848 -0.40071,0.10691 -0.52801,-0.38775 -0.0964,-0.37466 -0.0964,-0.37644 0,-0.55396 0.11482,-0.2114 0.61621,-0.50161 1.07135,-0.62013 0.35599,-0.0927 0.94308,-0.0971 1.2715,-0.01 0.8854,0.23608 1.5438,0.91158 1.81533,1.86248 0.0724,0.25337 0.0861,0.60428 0.10154,2.59618 0.0176,2.26206 0.0161,2.30679 -0.0847,2.50438 -0.12217,0.23947 -0.35113,0.39224 -0.58824,0.39249 -0.14256,0 -0.21285,-0.0418 -0.40898,-0.24396 -0.29957,-0.30881 -0.44419,-0.32064 -0.81359,-0.0665 -0.14201,0.0977 -0.37464,0.21854 -0.51696,0.26856 -0.34438,0.12104 -0.88757,0.11734 -1.21336,-0.008 z m 1.65006,-1.32756 c 0.39958,-0.22059 0.58791,-0.69242 0.59293,-1.48545 0.003,-0.42118 -0.0108,-0.51061 -0.0899,-0.59816 -0.25173,-0.27857 -1.43882,0.059 -1.72423,0.49025 -0.16725,0.25273 -0.239,0.72247 -0.16439,1.07623 0.10693,0.50699 0.35659,0.69327 0.87476,0.65268 0.19196,-0.015 0.38559,-0.0664 0.51081,-0.13555 z m 39.24399,1.37118 c -0.34041,-0.056 -0.67417,-0.22215 -0.80314,-0.39981 -0.13554,-0.18672 -0.13608,-0.66206 -10e-4,-0.93621 0.0895,-0.18177 0.10972,-0.19484 0.2915,-0.18849 0.10742,0.004 0.35921,0.0662 0.55952,0.13887 0.30888,0.11199 0.42511,0.12949 0.76514,0.11525 0.34685,-0.0145 0.4188,-0.0333 0.53322,-0.13887 0.26412,-0.24377 0.3432,-0.6774 0.18452,-1.0118 -0.0897,-0.18892 -0.32915,-0.35815 -0.99258,-0.70132 -1.00477,-0.51974 -1.52554,-1.40246 -1.38044,-2.33985 0.195,-1.25986 1.27675,-2.053 2.54745,-1.8678 0.45383,0.0661 0.79464,0.21311 0.91575,0.39487 0.10904,0.16368 0.11036,0.59481 0.003,0.84881 -0.10351,0.24399 -0.24309,0.27292 -0.68485,0.14199 -0.69312,-0.20543 -1.11964,-0.10728 -1.30462,0.30022 -0.25587,0.56365 -0.0761,0.81407 0.976,1.35969 1.05252,0.54583 1.57147,1.42154 1.4202,2.3965 -0.12503,0.80587 -0.50804,1.40963 -1.07903,1.70092 -0.42682,0.21775 -1.27121,0.29873 -1.95017,0.18703 z m 5.14284,-0.0147 c -0.2716,-0.0849 -0.4912,-0.22576 -0.70406,-0.45154 -0.25884,-0.27456 -0.37586,-0.4971 -0.48426,-0.92095 -0.30274,-1.18374 0.19751,-2.40777 1.18182,-2.89171 0.48276,-0.23734 1.13238,-0.41273 1.56544,-0.42263 0.22692,-0.005 0.40289,-0.0331 0.43946,-0.0697 0.10559,-0.10575 0.0698,-0.54612 -0.0641,-0.78883 -0.1741,-0.31563 -0.44514,-0.45191 -0.95163,-0.47849 -0.4494,-0.0236 -0.8242,0.0622 -1.20572,0.27583 -0.29427,0.16482 -0.36997,0.12355 -0.48632,-0.26512 -0.16437,-0.54906 -0.0868,-0.76651 0.37115,-1.04038 0.43699,-0.26133 0.84645,-0.35823 1.39659,-0.3305 0.98909,0.0499 1.81109,0.56357 2.19502,1.3718 0.28066,0.59082 0.30522,0.82482 0.33057,3.15035 0.016,1.46686 0.007,2.17696 -0.0306,2.30106 -0.0314,0.10488 -0.1446,0.26321 -0.27228,0.3809 -0.18871,0.17395 -0.24853,0.20141 -0.43882,0.20141 -0.21299,0 -0.22628,-0.009 -0.39928,-0.26952 -0.2125,-0.32005 -0.35546,-0.37859 -0.54652,-0.22378 -0.28343,0.22969 -0.5809,0.40245 -0.81028,0.47059 -0.29306,0.0871 -0.80982,0.0877 -1.08616,10e-4 z m 1.56098,-1.35649 c 0.40569,-0.22396 0.59689,-0.70696 0.58297,-1.47267 -0.005,-0.26534 -0.0216,-0.52276 -0.0372,-0.57205 -0.0406,-0.12791 -0.31215,-0.16464 -0.72363,-0.0979 -0.84674,0.13738 -1.25691,0.57802 -1.25031,1.34322 0.004,0.44035 0.16661,0.75464 0.46173,0.89131 0.209,0.0968 0.71113,0.049 0.96645,-0.0919 z m 13.66323,1.3496 c -1.51352,-0.40704 -2.44508,-2.28816 -2.13481,-4.31086 0.23216,-1.51348 0.9866,-2.55378 2.10289,-2.8997 0.45939,-0.14236 1.18469,-0.14201 1.62548,7.8e-4 0.88756,0.28753 1.53946,1.09353 1.84777,2.28457 0.17227,0.66546 0.21756,1.76673 0.0971,2.36116 -0.26435,1.30464 -1.09107,2.28952 -2.15434,2.56646 -0.35609,0.0927 -1.03465,0.0916 -1.3841,-0.002 z m 1.03858,-1.24555 c 0.26825,-0.0745 0.63907,-0.43991 0.80872,-0.79697 0.35673,-0.7508 0.40133,-2.11844 0.0957,-2.93525 -0.23562,-0.62974 -0.62509,-0.99958 -1.09356,-1.03842 -0.67138,-0.0557 -1.16803,0.41959 -1.42877,1.36725 -0.11875,0.4316 -0.11872,1.6476 5e-5,2.07928 0.28268,1.02747 0.89153,1.52578 1.61783,1.32411 z m 11.71722,1.2534 c -0.99475,-0.24129 -1.72263,-1.09318 -2.05376,-2.40368 -0.13332,-0.52763 -0.11862,-1.90078 0.0266,-2.48311 0.17542,-0.70348 0.4447,-1.20416 0.88182,-1.63965 0.56469,-0.56257 1.08255,-0.77573 1.88715,-0.77679 0.80578,-0.001 1.38081,0.23492 1.89118,0.7761 0.63725,0.67571 0.96335,1.64519 0.96335,2.86392 0,0.94773 -0.18496,1.74698 -0.54369,2.3494 -0.35744,0.60024 -1.01161,1.11765 -1.65025,1.30524 -0.31629,0.0929 -1.03659,0.0973 -1.40239,0.009 z m 1.02573,-1.25303 c 0.24454,-0.0679 0.59433,-0.39308 0.74709,-0.69455 0.31094,-0.61361 0.42895,-1.63106 0.28739,-2.4777 -0.1944,-1.16254 -0.5393,-1.56147 -1.34798,-1.55908 -0.77445,0.002 -1.08833,0.34851 -1.31189,1.44705 -0.25248,1.24064 -0.0371,2.41299 0.54871,2.98646 0.32422,0.31739 0.66586,0.4119 1.07668,0.29782 z m 41.68788,1.24518 c -0.93106,-0.25039 -1.70859,-1.13679 -2.00964,-2.29101 -0.13084,-0.5016 -0.17661,-1.3902 -0.0996,-1.9328 0.20061,-1.41286 0.77818,-2.37978 1.68496,-2.82074 0.43096,-0.20958 0.7634,-0.26786 1.38247,-0.24235 0.49193,0.0203 0.56612,0.0366 0.91118,0.20045 0.65083,0.30908 1.18971,0.93148 1.44665,1.67087 0.47172,1.35745 0.41107,2.84715 -0.16091,3.95189 -0.37225,0.71899 -1.10904,1.33026 -1.79341,1.48787 -0.31308,0.0721 -1.05251,0.059 -1.36172,-0.0242 z m 1.19282,-1.30794 c 0.61424,-0.28603 0.94846,-1.10562 0.94846,-2.32586 0,-0.95718 -0.17214,-1.56597 -0.56643,-2.00326 -0.23402,-0.25955 -0.50552,-0.38721 -0.82349,-0.38721 -0.47979,0 -0.88853,0.31925 -1.14723,0.89607 -0.21704,0.48391 -0.2688,0.77637 -0.2688,1.51881 0,0.77232 0.0532,1.05237 0.29802,1.57033 0.34594,0.73171 0.95002,1.01492 1.55947,0.73112 z m 37.7784,1.3069 c -0.3263,-0.12051 -0.71573,-0.51014 -0.91459,-0.91505 -0.61532,-1.25292 -0.1207,-2.7886 1.09547,-3.40117 0.30039,-0.1513 1.27725,-0.39077 1.59405,-0.39077 0.22627,0 0.27327,-0.0168 0.34271,-0.12284 0.0968,-0.14778 0.0658,-0.42491 -0.0794,-0.70963 -0.28066,-0.55013 -1.36878,-0.65668 -2.13293,-0.20886 -0.28765,0.16858 -0.37512,0.12652 -0.49884,-0.23979 -0.15353,-0.45466 -0.13758,-0.65083 0.0688,-0.84545 0.36698,-0.3461 0.98783,-0.55753 1.6398,-0.55843 0.71157,-9.8e-4 1.24877,0.21655 1.73237,0.70154 0.63216,0.63397 0.78031,1.21363 0.74093,2.89899 -0.0213,0.91056 -0.0143,1.08644 0.0429,1.08644 0.0567,0 0.0683,0.2061 0.0683,1.21315 0,1.0939 -0.008,1.22062 -0.0855,1.28911 -0.18602,0.16536 -0.8335,0.24418 -0.99182,0.12073 -0.042,-0.0327 -0.12841,-0.15287 -0.1921,-0.267 -0.14309,-0.25641 -0.21739,-0.26062 -0.59136,-0.0334 -0.67408,0.40949 -1.37242,0.55473 -1.83885,0.38247 z m 1.64393,-1.33534 c 0.4221,-0.21534 0.60009,-0.64178 0.6091,-1.45935 0.006,-0.53444 0.002,-0.55695 -0.11552,-0.65213 -0.10612,-0.086 -0.16394,-0.0944 -0.45331,-0.0659 -0.9414,0.0928 -1.37864,0.46171 -1.43836,1.21368 -0.0407,0.51233 0.12285,0.89368 0.44664,1.04149 0.20145,0.092 0.69833,0.0513 0.95145,-0.0778 z m -243.90677,1.29561 c -0.12758,-0.0343 -0.27508,-0.10141 -0.32776,-0.14909 -0.22201,-0.20092 -0.22154,-0.19052 -0.22154,-4.89577 v -4.45467 l 0.1537,-0.1537 c 0.14236,-0.14237 0.18918,-0.15715 0.63477,-0.20034 0.70184,-0.068 1.9531,-0.0161 2.45864,0.10214 0.87254,0.20401 1.51208,0.49876 2.0887,0.96264 0.58111,0.46748 0.9737,0.99822 1.24799,1.68713 0.23759,0.59673 0.29478,0.93407 0.29678,1.75067 0.002,0.85944 -0.0695,1.30861 -0.34154,2.14095 -0.65597,2.00735 -1.73506,2.95965 -3.65653,3.2269 -0.52032,0.0724 -2.04243,0.0614 -2.33321,-0.0169 z m 2.52274,-1.44362 c 0.48651,-0.12443 0.80751,-0.30026 1.1741,-0.64313 0.72842,-0.68129 1.03773,-1.70357 0.98767,-3.26424 -0.0277,-0.86399 -0.11856,-1.26452 -0.41511,-1.83028 -0.45153,-0.86142 -1.22213,-1.31197 -2.35285,-1.37564 -0.53317,-0.03 -0.79215,0.0338 -0.93871,0.23139 -0.0899,0.12116 -0.0936,0.25221 -0.0963,3.34785 -0.002,1.77197 0.013,3.27133 0.0322,3.33191 0.0192,0.0606 0.10441,0.1525 0.18929,0.20426 0.21443,0.13075 0.90421,0.12972 1.41971,-0.002 z m 166.76026,1.4327 c -0.74539,-0.22889 -1.31691,-0.98076 -1.62806,-2.14179 -0.12013,-0.44824 -0.13088,-0.56436 -0.13115,-1.41603 -4.9e-4,-0.86965 0.008,-0.95526 0.13247,-1.3672 0.31834,-1.05375 0.82069,-1.78117 1.44097,-2.08657 0.26527,-0.1306 0.39469,-0.16279 0.71322,-0.17737 0.49989,-0.0229 0.82462,0.0501 1.37794,0.30988 l 0.44659,0.20963 0.0315,-0.88562 c 0.0174,-0.48709 0.0251,-1.2277 0.0173,-1.64581 -0.0161,-0.8583 0.0124,-0.96566 0.29158,-1.09814 0.12423,-0.0589 0.26599,-0.0756 0.52962,-0.0623 0.41579,0.021 0.53376,0.1007 0.60948,0.41178 0.0279,0.11447 0.0431,1.98321 0.0381,4.68273 -0.005,2.47073 0.009,4.575 0.029,4.67616 0.0487,0.24048 -0.0394,0.45007 -0.22065,0.52515 -0.0845,0.035 -0.29931,0.0511 -0.53771,0.0402 -0.50022,-0.0227 -0.5828,-0.0985 -0.5828,-0.53498 0,-0.3098 -0.0316,-0.34379 -0.17381,-0.18669 -0.18321,0.20244 -0.77545,0.55259 -1.16262,0.68737 -0.45212,0.15739 -0.84078,0.17635 -1.22102,0.0596 z m 1.70481,-1.46017 c 0.43034,-0.26813 0.64193,-0.82124 0.69036,-1.80468 0.0323,-0.65512 -0.0319,-1.26856 -0.18447,-1.76237 -0.27151,-0.87901 -1.17109,-1.17221 -1.82649,-0.5953 -0.42937,0.37795 -0.64952,0.95681 -0.69239,1.82056 -0.0612,1.23294 0.32505,2.18837 0.98595,2.43898 0.31177,0.11823 0.74747,0.077 1.02704,-0.0972 z m 65.01742,1.45986 c -0.6596,-0.2309 -1.15208,-0.82235 -1.46671,-1.76146 -0.45003,-1.34325 -0.36871,-2.83461 0.22107,-4.05411 0.27898,-0.57689 0.6501,-0.97097 1.12717,-1.19692 0.311,-0.14729 0.37012,-0.15834 0.84704,-0.15834 0.55127,0 0.79584,0.0593 1.33559,0.32381 0.15718,0.077 0.30693,0.14006 0.33278,0.14006 0.0294,0 0.0429,-0.62011 0.0361,-1.65695 -0.01,-1.47164 -0.002,-1.67075 0.0699,-1.78033 0.10579,-0.16145 0.40464,-0.23968 0.82492,-0.21594 0.26213,0.0148 0.3537,0.0415 0.44053,0.12828 l 0.10961,0.10959 0.0244,4.91816 c 0.0134,2.70499 0.007,4.95611 -0.0133,5.0025 -0.0597,0.13343 -0.21291,0.18993 -0.53871,0.19869 -0.52991,0.0142 -0.76634,-0.17024 -0.76634,-0.59799 0,-0.10876 -0.013,-0.19774 -0.0289,-0.19774 -0.0159,0 -0.1127,0.0714 -0.21517,0.1587 -0.70792,0.60298 -1.68353,0.86981 -2.34003,0.63999 z m 1.6742,-1.4078 c 0.36407,-0.1755 0.61925,-0.68037 0.71766,-1.41988 0.0817,-0.6138 0.0359,-1.92674 -0.0782,-2.2418 -0.11193,-0.30916 -0.46421,-0.66691 -0.73629,-0.74771 -0.26628,-0.0791 -0.71566,-0.0758 -0.91292,0.007 -0.37186,0.15538 -0.70099,0.67679 -0.8393,1.32963 -0.0943,0.44534 -0.0938,1.46487 0.001,1.86709 0.14897,0.63188 0.50924,1.13239 0.91282,1.26809 0.22865,0.0769 0.71375,0.0447 0.93513,-0.062 z m 11.16415,1.40658 c -0.51412,-0.17987 -0.92643,-0.59673 -1.2476,-1.26134 -0.57891,-1.19801 -0.65236,-2.72695 -0.19551,-4.07013 0.28548,-0.83935 0.69026,-1.3601 1.28611,-1.65459 0.35538,-0.17563 0.39258,-0.18352 0.86222,-0.18283 0.52679,7.9e-4 0.9883,0.11067 1.45233,0.34582 0.12735,0.0645 0.24327,0.11733 0.25759,0.11733 0.0143,0 0.026,-0.74853 0.026,-1.66338 0,-1.04748 0.0186,-1.69818 0.0503,-1.75734 0.0846,-0.15813 0.31241,-0.24143 0.66014,-0.24143 0.38317,0 0.62514,0.098 0.70135,0.28419 0.0371,0.0905 0.0606,1.6029 0.0763,4.90878 0.0254,5.3338 0.0413,5.06025 -0.30012,5.15507 -0.25347,0.0704 -0.47633,0.0657 -0.66465,-0.014 -0.23981,-0.1015 -0.331,-0.23571 -0.3616,-0.53221 l -0.0276,-0.26698 -0.31621,0.23934 c -0.37392,0.28302 -0.82183,0.51787 -1.16077,0.60864 -0.32432,0.0868 -0.82703,0.08 -1.09838,-0.0149 z m 1.51722,-1.34149 c 0.62713,-0.18789 0.92395,-0.91714 0.92395,-2.26998 0,-1.15376 -0.22838,-1.84447 -0.7083,-2.14211 -0.46239,-0.28677 -1.11477,-0.16154 -1.45,0.27834 -0.3774,0.4952 -0.54002,1.07308 -0.54002,1.91895 0,0.85695 0.16657,1.44451 0.53295,1.87992 0.27312,0.32459 0.80074,0.46691 1.24142,0.33488 z m -242.55181,1.30622 c -0.21134,-0.0787 -0.19649,-0.0672 -0.27052,-0.20967 -0.0784,-0.15073 -0.0786,-6.45416 -4.9e-4,-6.62611 0.0912,-0.20009 0.44181,-0.30262 0.85737,-0.2507 0.20998,0.0262 0.30901,0.0675 0.41415,0.17266 l 0.13818,0.13818 v 3.19886 c 0,1.91476 -0.0187,3.24811 -0.0466,3.32155 -0.0256,0.0675 -0.10256,0.15934 -0.17091,0.20412 -0.16939,0.11099 -0.68406,0.13954 -0.92134,0.0511 z m 3.06366,0.0183 c -0.0828,-0.0256 -0.19262,-0.0931 -0.24414,-0.15005 -0.0899,-0.0992 -0.0947,-0.23738 -0.11878,-3.38213 -0.0138,-1.80326 -0.0166,-3.30694 -0.006,-3.3415 0.0557,-0.1862 0.61923,-0.30607 0.89573,-0.19054 0.22326,0.0933 0.32527,0.24703 0.37575,0.56639 0.0218,0.13779 0.0499,0.26078 0.0624,0.27332 0.0125,0.0125 0.18193,-0.15261 0.37644,-0.36697 0.1945,-0.21437 0.45382,-0.44847 0.57626,-0.52023 0.27752,-0.16263 0.5936,-0.17539 0.78628,-0.0317 0.12873,0.096 0.1328,0.11418 0.14657,0.65512 0.008,0.30601 0.002,0.60542 -0.0129,0.66536 -0.0347,0.13956 -0.21642,0.23222 -0.60569,0.3088 -0.43148,0.0849 -0.72381,0.29136 -0.89887,0.63484 -0.18939,0.37161 -0.22717,0.83305 -0.22879,2.79421 -0.001,1.73271 -0.017,1.85142 -0.26406,2.01329 -0.14747,0.0966 -0.62724,0.13765 -0.83988,0.0718 z m 20.92707,0.0174 c -0.0671,-0.0102 -0.19365,-0.0301 -0.28114,-0.0443 -0.31873,-0.0516 -0.30628,0.0904 -0.30728,-3.50512 -5.9e-4,-2.1959 0.0159,-3.28592 0.0507,-3.35102 0.0713,-0.13327 0.18315,-0.184 0.44002,-0.1996 0.49252,-0.0299 0.63579,-0.003 0.78502,0.14596 l 0.14273,0.14273 v 3.25462 3.25462 l -0.14273,0.14273 c -0.0942,0.0942 -0.19244,0.14273 -0.28898,0.14273 -0.0804,0 -0.17551,0.008 -0.21128,0.0176 -0.0358,0.01 -0.11996,0.009 -0.1871,-9.8e-4 z m 9.3742,-0.0442 c -0.33275,-0.13837 -0.31503,0.0531 -0.33031,-3.57005 l -0.0138,-3.28031 0.10317,-0.0961 c 0.20256,-0.18872 0.80928,-0.17752 1.02637,0.019 0.11183,0.1012 0.19145,0.36278 0.19182,0.6302 l 4.9e-4,0.19366 0.32959,-0.3351 c 0.63195,-0.64252 1.15936,-0.87496 1.75413,-0.77308 0.85417,0.14632 1.45067,0.72543 1.65509,1.60685 0.0917,0.3956 0.16379,2.13766 0.16595,4.01284 l 0.002,1.33434 -0.14273,0.14273 c -0.13666,0.13666 -0.16147,0.14273 -0.58322,0.14273 -0.39515,0 -0.45459,-0.0121 -0.57749,-0.11777 l -0.13701,-0.11777 -0.0303,-2.2138 c -0.0308,-2.25246 -0.0472,-2.44983 -0.23428,-2.81629 -0.16345,-0.32026 -0.46505,-0.49703 -0.8447,-0.49508 -0.43354,0.002 -0.76425,0.25759 -1.01036,0.78018 l -0.12648,0.26856 -0.0244,2.19729 c -0.0178,1.60141 -0.0406,2.2255 -0.084,2.30129 -0.13316,0.23228 -0.73141,0.33435 -1.08878,0.18575 z m 9.32797,0.0265 c -0.0936,-0.022 -0.21992,-0.0979 -0.28077,-0.16862 l -0.11063,-0.12862 -0.0103,-4.47732 c -0.006,-2.46252 -0.008,-4.5508 -0.006,-4.64063 0.007,-0.27393 0.13214,-0.34937 0.68068,-0.40986 0.94242,-0.10394 1.02861,-0.0331 1.65233,1.3576 0.4341,0.9679 2.3093,4.94616 2.50726,5.31917 l 0.10366,0.19532 0.002,-3.23173 c 0.001,-1.92997 0.0209,-3.28115 0.0488,-3.35442 0.0256,-0.0675 0.10341,-0.15989 0.17281,-0.20536 0.15474,-0.10139 0.62362,-0.1188 0.8317,-0.0309 0.30791,0.13009 0.29088,-0.12462 0.29931,4.47861 0.004,2.3096 0.0237,4.34687 0.0432,4.52727 0.0644,0.59532 -0.13103,0.78627 -0.80774,0.78902 -0.68698,0.003 -0.83015,-0.15601 -1.49927,-1.66292 -0.27213,-0.61285 -0.92637,-2.03714 -1.45388,-3.16509 -0.52751,-1.12794 -0.99037,-2.12221 -1.02858,-2.20949 -0.0382,-0.0873 -0.0918,-0.1587 -0.11909,-0.1587 -0.0331,0 -0.0496,1.14862 -0.0496,3.45833 v 3.45833 l -0.11735,0.11024 c -0.18466,0.17348 -0.51355,0.23085 -0.85845,0.14975 z m 28.85699,-0.0138 c -0.34614,-0.11804 -0.33604,-0.012 -0.34255,-3.59836 -0.003,-1.75906 -0.004,-3.22518 -0.003,-3.25806 0.0112,-0.20449 0.78596,-0.31192 1.03674,-0.14376 0.15212,0.10201 0.28491,0.40215 0.28491,0.64398 0,0.0935 0.009,0.16992 0.0204,0.16992 0.0112,0 0.15736,-0.14268 0.32481,-0.31707 0.37819,-0.39384 0.66428,-0.57953 1.06291,-0.68988 0.26279,-0.0727 0.35773,-0.0774 0.6298,-0.0308 0.42711,0.0732 0.89359,0.30888 1.11554,0.56371 0.66439,0.76278 0.82468,1.97017 0.72033,5.42595 -0.0399,1.32144 0.002,1.24932 -0.71889,1.24932 -0.42659,0 -0.52563,-0.0148 -0.62256,-0.0933 l -0.11528,-0.0933 -0.0265,-2.28711 c -0.0299,-2.57782 -0.0402,-2.6583 -0.38319,-3.0013 -0.44361,-0.44362 -1.26896,-0.33016 -1.5906,0.21868 -0.20494,0.3497 -0.22762,0.61672 -0.24016,2.82766 -0.0114,2.01204 -0.0155,2.09287 -0.11097,2.2217 -0.11889,0.16036 -0.35292,0.25026 -0.6515,0.25026 -0.12086,0 -0.29664,-0.0262 -0.39063,-0.0583 z m 12.86636,0.0334 c -0.21801,-0.0534 -0.34819,-0.12454 -0.41639,-0.22741 -0.0619,-0.0934 -0.073,-0.76805 -0.0802,-4.8652 -0.006,-3.51798 0.007,-4.80231 0.0488,-4.93169 0.0782,-0.23968 0.30084,-0.34567 0.7262,-0.34577 0.18002,-4e-5 0.38491,0.0262 0.45533,0.0583 0.27842,0.12686 0.26719,-0.0903 0.26719,5.16767 v 4.84022 l -0.14273,0.14273 c -0.0785,0.0785 -0.1853,0.14273 -0.23733,0.14273 -0.052,0 -0.19105,0.01 -0.30893,0.0212 -0.11789,0.0117 -0.25828,0.0104 -0.312,-0.003 z m 45.89899,-0.015 c -0.40023,-0.0966 -0.49573,-0.27226 -0.43302,-0.79656 0.0233,-0.19492 0.0309,-1.62882 0.0168,-3.18646 -0.025,-2.76152 -0.0232,-2.83481 0.0701,-2.94247 0.18713,-0.216 0.75549,-0.26684 0.95585,-0.0855 0.12447,0.11265 0.19101,0.29367 0.23325,0.63463 l 0.0362,0.29223 0.35309,-0.41931 c 0.55811,-0.66275 0.92527,-0.8627 1.27253,-0.69297 0.26363,0.12885 0.29948,0.24528 0.26698,0.86715 -0.0319,0.61132 -0.0961,0.72718 -0.43472,0.78513 -0.59848,0.10242 -0.87026,0.27322 -1.06045,0.66645 -0.1934,0.39984 -0.22337,0.7498 -0.23497,2.74344 -0.0123,2.11759 0.005,2.03266 -0.43408,2.12683 -0.2725,0.0584 -0.3902,0.0599 -0.60752,0.007 z m 4.12602,-0.0155 c -0.34597,-0.12397 -0.33539,-0.0125 -0.34628,-3.64561 -0.009,-3.11382 -0.006,-3.24522 0.0813,-3.30915 0.14225,-0.10401 0.46432,-0.17454 0.67066,-0.14687 0.31435,0.0422 0.45992,0.2244 0.54419,0.68125 l 0.0519,0.28157 0.30796,-0.36903 c 0.47454,-0.56864 0.82913,-0.78274 1.1974,-0.72298 0.0877,0.0142 0.21315,0.0664 0.27878,0.11593 0.11592,0.0875 0.11923,0.10772 0.11537,0.70578 -0.005,0.71389 -0.0295,0.76288 -0.43549,0.85813 -0.67068,0.15734 -0.96223,0.35802 -1.14827,0.79039 -0.13973,0.32474 -0.18814,1.08187 -0.19186,3.00025 -0.003,1.49432 -0.0161,1.5798 -0.26422,1.70811 -0.19395,0.1003 -0.65015,0.12795 -0.8615,0.0522 z m 10.79572,-0.003 c -0.0915,-0.0321 -0.21233,-0.12032 -0.26856,-0.19613 -0.10188,-0.13737 -0.10227,-0.154 -0.11515,-4.85056 -0.009,-3.22098 0.004,-4.77389 0.0391,-4.90595 0.0743,-0.27574 0.27006,-0.38367 0.69647,-0.38391 0.36303,0 0.58229,0.082 0.67355,0.25253 0.0415,0.0775 0.0556,1.3764 0.0536,4.93465 -0.002,4.39859 -0.01,4.8404 -0.0831,4.95214 -0.15556,0.23741 -0.61923,0.32923 -0.99597,0.19723 z m 3.07765,0.0177 c -0.0907,-0.023 -0.22253,-0.0994 -0.29298,-0.16985 l -0.12808,-0.12807 -0.0131,-4.75299 c -0.0103,-3.73738 0,-4.79356 0.0488,-4.94282 0.083,-0.25408 0.29673,-0.36077 0.72116,-0.35991 0.3844,7.8e-4 0.53449,0.0687 0.6469,0.29285 0.0795,0.15855 0.0854,0.49441 0.0854,4.89597 0,5.05817 0.004,4.98065 -0.23768,5.10982 -0.13669,0.0731 -0.62994,0.10582 -0.83046,0.055 z m 27.63103,0.003 c -0.30048,-0.0478 -0.41964,-0.12311 -0.48315,-0.3053 -0.0824,-0.23623 -0.0742,-9.59398 0.008,-9.75949 0.0948,-0.18968 0.35302,-0.29281 0.73345,-0.29289 0.42907,0 0.60142,0.0858 0.66169,0.32984 0.0263,0.10661 0.0423,2.18176 0.0384,4.9791 l -0.007,4.7963 -0.1243,0.12431 c -0.13992,0.13991 -0.45112,0.18808 -0.82786,0.12813 z m 24.86352,-0.002 c -0.12818,-0.0219 -0.26138,-0.0873 -0.3418,-0.16765 l -0.13178,-0.13174 -0.0244,-3.185 c -0.0134,-1.75175 -0.0122,-3.23844 0.003,-3.30376 0.0471,-0.20681 0.2513,-0.31464 0.59502,-0.31419 0.16813,0 0.3549,0.027 0.41505,0.0594 0.14508,0.0783 0.25685,0.30356 0.25685,0.51759 0,0.0953 0.0132,0.17333 0.0292,0.17333 0.0161,0 0.20835,-0.1353 0.42725,-0.30066 0.55004,-0.41552 0.9459,-0.59487 1.32244,-0.59917 0.45713,-0.005 0.75182,0.16403 1.31275,0.75396 l 0.46073,0.48456 0.0828,-0.21681 c 0.10801,-0.28281 0.47131,-0.60783 0.93633,-0.83765 0.31464,-0.1555 0.4082,-0.17905 0.71508,-0.18001 0.66128,-0.002 1.1802,0.37302 1.52731,1.10394 0.3174,0.66835 0.32805,0.77283 0.35073,3.4419 l 0.0204,2.40493 -0.14219,0.14219 c -0.21496,0.21496 -0.80472,0.26402 -1.04121,0.0866 -0.18315,-0.1374 -0.19108,-0.22886 -0.19108,-2.20422 0,-1.78296 -0.008,-1.96964 -0.10293,-2.40803 -0.15904,-0.73427 -0.29071,-0.93176 -0.69385,-1.04074 -0.27597,-0.0746 -0.67829,0.0219 -0.89889,0.21558 -0.39672,0.34831 -0.45502,0.79294 -0.44862,3.42105 0.004,1.65943 -7.4e-4,1.75951 -0.0901,1.87991 -0.13073,0.17622 -0.41573,0.26347 -0.73358,0.22455 -0.52382,-0.0641 -0.61018,-0.27625 -0.56643,-1.39135 0.0153,-0.38941 0.005,-1.33425 -0.0233,-2.09964 -0.0559,-1.52268 -0.10491,-1.8146 -0.34519,-2.05487 -0.41178,-0.41179 -1.22437,-0.22798 -1.51556,0.34279 -0.17103,0.33525 -0.19688,0.69871 -0.19688,2.76769 0,1.16192 -0.0197,2.06617 -0.0466,2.13694 -0.0917,0.24108 -0.46984,0.35556 -0.92022,0.27856 z m 16.64166,-0.003 c -0.2078,-0.0521 -0.39124,-0.25405 -0.39188,-0.43145 -0.004,-1.15803 -0.0391,-6.21878 -0.0435,-6.30838 -0.009,-0.18164 0.18934,-0.3286 0.49405,-0.36629 0.47013,-0.0582 0.73707,0.12463 0.82851,0.56736 l 0.0583,0.28208 0.36259,-0.34443 c 0.23347,-0.22178 0.47795,-0.39908 0.68657,-0.49792 0.28422,-0.13467 0.37192,-0.15289 0.71461,-0.14844 0.45093,0.006 0.71506,0.0898 1.08954,0.34615 0.47641,0.3262 0.77221,0.87545 0.88901,1.65076 0.0283,0.18799 0.0649,1.35655 0.0814,2.59679 0.0322,2.43132 0.0252,2.51614 -0.21526,2.60758 -0.0647,0.0246 -0.31495,0.0447 -0.55612,0.0447 -0.39474,0 -0.44991,-0.0114 -0.55286,-0.11436 l -0.11436,-0.11436 -0.0232,-2.26604 c -0.0253,-2.47349 -0.0389,-2.59988 -0.31633,-2.92955 -0.17646,-0.20971 -0.38731,-0.28865 -0.77098,-0.28865 -0.62075,0 -0.96715,0.3166 -1.09335,0.9993 -0.0328,0.1777 -0.0535,1.05692 -0.054,2.2934 -7.8e-4,2.13647 -0.002,2.15311 -0.24343,2.32914 -0.14308,0.10455 -0.58486,0.15387 -0.82931,0.0926 z m 6.90849,0.0231 c -0.0269,-0.009 -0.1314,-0.0304 -0.23231,-0.0472 -0.36377,-0.0609 -0.34634,0.11715 -0.34457,-3.5198 0.001,-2.93062 0.009,-3.25262 0.0823,-3.36405 0.10167,-0.15518 0.25728,-0.19878 0.69641,-0.19515 0.38771,0.003 0.57589,0.0882 0.65483,0.29583 0.0701,0.18432 0.0618,6.35717 -0.009,6.55969 -0.0376,0.10779 -0.10786,0.18093 -0.21816,0.22702 -0.14666,0.0613 -0.50468,0.0861 -0.62973,0.0437 z m -162.67653,-0.15056 -0.11838,-0.126 v -3.29623 -3.29624 l 0.137,-0.11784 c 0.12012,-0.10332 0.18511,-0.11784 0.52733,-0.11784 0.60698,0 0.74264,0.11077 0.74749,0.61035 0.001,0.10743 -0.003,1.55315 -0.009,3.21271 l -0.011,3.01739 -0.11985,0.11986 c -0.1102,0.11019 -0.15672,0.11985 -0.57744,0.11985 -0.42876,0 -0.46504,-0.008 -0.57595,-0.12601 z m -33.09851,-7.9186 c -0.29411,-0.15013 -0.29339,-0.18701 0.0163,-0.82465 0.15467,-0.3185 0.31545,-0.64502 0.35729,-0.72558 0.18503,-0.35635 0.55377,-0.60718 0.89567,-0.60929 0.21867,-10e-4 0.68026,0.13288 0.68026,0.19783 0,0.0689 -1.0079,1.60329 -1.16428,1.77247 -0.13584,0.14695 -0.38298,0.2748 -0.53095,0.27467 -0.0479,-4e-5 -0.16228,-0.0385 -0.25426,-0.0854 z m -28.40945,-0.1155 c -0.41306,-0.1193 -0.65289,-0.62169 -0.55164,-1.15559 0.0579,-0.30553 0.0976,-0.38646 0.26766,-0.54549 0.10138,-0.0948 0.19151,-0.12348 0.43173,-0.13721 0.53308,-0.0305 0.81379,0.23942 0.856,0.82306 0.0344,0.47567 -0.13806,0.81291 -0.49973,0.97718 -0.221,0.10037 -0.27428,0.10439 -0.50402,0.038 z m 23.63201,-0.0462 c -0.37477,-0.18986 -0.53629,-0.53119 -0.47969,-1.0137 0.072,-0.6141 0.42307,-0.90394 0.95139,-0.78554 0.42233,0.0946 0.60904,0.37632 0.61212,0.92343 0.002,0.43545 -0.0815,0.62532 -0.35734,0.80784 -0.2663,0.17623 -0.47435,0.1957 -0.72648,0.068 z m 38.27027,0.0534 c -0.23429,-0.0443 -0.37687,-0.14153 -0.50327,-0.34323 -0.15653,-0.2498 -0.15186,-0.86852 0.009,-1.15188 0.1516,-0.26756 0.35703,-0.38319 0.6731,-0.37888 0.44357,0.006 0.66247,0.21352 0.79912,0.75741 0.0473,0.18821 0.0436,0.27277 -0.0211,0.48829 -0.14923,0.49647 -0.48546,0.71733 -0.95649,0.62829 z m 161.96193,-0.13343 c -0.21281,-0.17907 -0.30136,-0.41442 -0.29578,-0.78615 0.009,-0.62154 0.27425,-0.93698 0.78696,-0.93698 0.50271,0 0.73837,0.27635 0.77003,0.90297 0.0315,0.62369 -0.25363,0.95216 -0.82656,0.95216 -0.23063,0 -0.30441,-0.0224 -0.43465,-0.132 z m 4.32423,-8.75584 c -2.19277,-0.17735 -4.25688,-0.68699 -5.98989,-1.47894 -2.06291,-0.94269 -4.06294,-2.69956 -5.37478,-4.72129 -1.1083,-1.70807 -1.87589,-3.78886 -2.18829,-5.93208 -0.23719,-1.62721 -0.24032,-1.83511 -0.23997,-15.94318 4.9e-4,-12.73891 0.0125,-13.97729 0.14826,-15.11249 0.59089,-4.93999 2.91278,-8.85733 6.54009,-11.03399 2.51616,-1.50988 5.08625,-2.08736 8.96007,-2.01327 2.32878,0.0446 3.83022,0.303 5.63972,0.97078 3.23074,1.19229 5.62789,3.29704 7.10145,6.23521 1.01505,2.02396 1.61999,4.40126 1.78461,7.01316 0.0667,1.0585 0.067,26.81608 4.9e-4,27.88119 -0.16268,2.59824 -0.70244,4.74402 -1.70727,6.78719 -0.68761,1.39812 -1.38331,2.37472 -2.42544,3.40472 -0.63829,0.63085 -1.02722,0.94692 -1.7927,1.45683 -1.86922,1.24515 -4.34868,2.08614 -7.11142,2.41208 -0.79576,0.0939 -2.60466,0.13395 -3.34476,0.0741 z m 2.29495,-9.721 c 1.81268,-0.29899 2.97552,-1.57495 3.38911,-3.71882 0.20398,-1.05738 0.20603,-1.22098 0.18778,-15.00189 -0.019,-14.38024 -0.006,-13.68165 -0.28081,-14.89276 -0.31241,-1.37617 -1.22583,-2.4951 -2.43581,-2.98383 -0.55645,-0.22476 -0.98309,-0.28739 -1.95892,-0.28754 -1.01072,0 -1.30136,0.0516 -1.94535,0.34626 -1.25959,0.57639 -2.097,1.75931 -2.37291,3.35193 -0.16508,0.95293 -0.18032,2.42569 -0.1626,15.71107 0.0162,12.15464 0.0234,13.09827 0.10285,13.58861 0.39433,2.43249 1.65562,3.71103 3.88973,3.94291 0.41137,0.0427 1.14586,0.0168 1.58693,-0.0559 z m -238.98603,8.95506 c -0.0973,-0.0339 -0.1819,-0.062 -0.18793,-0.0624 -0.006,-4.9e-4 -0.0441,-0.0648 -0.0846,-0.14318 -0.0654,-0.12645 -0.074,-3.17595 -0.0771,-27.15812 -0.003,-26.33257 -0.001,-27.01882 0.0881,-27.14059 0.0503,-0.0687 0.16682,-0.16335 0.25891,-0.2103 0.15717,-0.0802 0.61145,-0.0854 7.41849,-0.0853 7.22089,0 8.19023,0.0181 9.39953,0.17426 5.36727,0.69323 9.16475,3.51318 10.95565,8.13553 0.53273,1.37496 0.89447,3.0806 1.03365,4.87371 0.064,0.82413 0.0958,21.20537 0.0401,25.65949 -0.0416,3.3252 -0.10512,4.01252 -0.53316,5.76889 -0.70145,2.87823 -2.15722,5.2838 -4.31842,7.13597 -1.93382,1.65729 -4.19034,2.60023 -7.10458,2.96883 -0.72236,0.0914 -2.3504,0.11094 -10.90714,0.13115 -4.57784,0.0108 -5.84194,6.8e-4 -5.98152,-0.048 z m 14.66695,-9.82645 c 1.34705,-0.18358 2.29089,-0.82568 3.04352,-2.07053 0.25333,-0.41901 0.49509,-1.01824 0.60944,-1.51057 l 0.10445,-0.4497 0.0151,-13.13492 c 0.01,-8.41474 -0.002,-13.37181 -0.0336,-13.79411 -0.058,-0.78501 -0.18076,-1.29843 -0.44018,-1.84112 -0.26296,-0.55011 -0.5178,-0.90942 -0.91274,-1.28691 -0.54476,-0.52071 -1.03453,-0.81048 -1.75237,-1.0368 -0.59732,-0.18832 -1.02028,-0.22394 -2.93976,-0.24759 -1.73718,-0.0214 -1.77273,-0.0199 -1.97473,0.0835 -0.13701,0.0701 -0.23927,0.1705 -0.3062,0.30058 l -0.10048,0.19532 -0.0139,17.26095 c -0.008,9.49352 -0.002,17.30983 0.0128,17.36957 0.063,0.25561 0.12736,0.26228 2.29607,0.23801 1.10108,-0.0123 2.17776,-0.0464 2.3926,-0.0756 z m 21.17075,9.85518 c -0.21015,-0.043 -0.37861,-0.16576 -0.47857,-0.34867 -0.0824,-0.15087 -0.0865,-1.41109 -0.0865,-27.06286 0,-23.81951 0.008,-26.92091 0.0732,-27.04671 0.0403,-0.0781 0.13528,-0.18802 0.2111,-0.24415 0.13767,-0.10191 0.14445,-0.10204 5.01357,-0.10204 4.87405,0 4.87575,3e-5 5.01357,0.10236 0.0758,0.0563 0.165,0.15518 0.19818,0.21973 0.0477,0.0927 0.0605,5.77513 0.061,27.06343 6.4e-4,24.43859 -0.006,26.96117 -0.0763,27.10837 -0.1595,0.33615 0.10523,0.31898 -5.0957,0.33043 -2.57736,0.006 -4.75251,-0.003 -4.83366,-0.0199 z m 17.32683,-0.002 c -0.21463,-0.0439 -0.39528,-0.18676 -0.4985,-0.39417 -0.0835,-0.16784 -0.0872,-1.24623 -0.0845,-24.89368 0.002,-17.83296 0.0178,-24.77776 0.0566,-24.93192 0.0862,-0.34225 0.33268,-0.56313 1.14069,-1.02214 0.93915,-0.53352 3.06699,-1.58957 3.97954,-1.97507 3.95704,-1.67161 7.5917,-2.41806 11.32826,-2.32648 4.34163,0.10641 7.31529,1.07906 9.40825,3.07733 2.27061,2.16788 3.40195,5.32588 3.67597,10.26102 0.0739,1.33062 0.0763,41.55656 0.003,41.74846 -0.0712,0.18518 -0.18174,0.3076 -0.36185,0.40073 -0.12301,0.0636 -0.76095,0.0735 -4.84281,0.0748 -4.51852,0.001 -4.70723,-0.002 -4.85827,-0.0905 -0.21709,-0.12713 -0.33014,-0.2957 -0.38025,-0.56701 -0.0241,-0.13045 -0.0321,-8.45499 -0.0185,-19.14085 0.0248,-19.43312 0.0199,-20.07127 -0.16224,-20.97824 -0.25899,-1.28988 -0.81366,-2.25245 -1.60162,-2.77946 -0.71739,-0.47982 -1.25748,-0.61559 -2.44816,-0.61541 -0.7709,0 -0.95665,0.0165 -1.51142,0.13377 -0.68249,0.14422 -1.92822,0.54104 -2.36739,0.75412 -0.16583,0.0805 -0.31442,0.19641 -0.3815,0.29771 l -0.10986,0.16591 -0.001,21.12341 c -0.001,20.82254 -0.002,21.12638 -0.0961,21.33276 -0.17347,0.38223 0.1328,0.36001 -5.08533,0.36879 -2.54506,0.004 -4.69715,-0.006 -4.78242,-0.0239 z m 36.06726,0.002 c -0.1023,-0.0166 -0.23965,-0.0868 -0.31265,-0.15983 l -0.13021,-0.13023 0.002,-20.25057 c 0.002,-20.89465 0.005,-21.265 0.1959,-22.77277 0.53141,-4.20806 2.44023,-7.46878 5.61247,-9.58743 1.73162,-1.15649 4.04744,-2.10695 6.17683,-2.53507 1.16375,-0.23397 1.78714,-0.29162 3.14945,-0.29123 1.35559,4.9e-4 1.96204,0.0571 3.13593,0.29319 2.49669,0.50213 5.23999,1.71795 6.97161,3.08979 1.75369,1.38931 3.10364,3.39077 3.90605,5.79115 0.53717,1.60694 0.88987,3.58934 0.99903,5.6153 0.0722,1.34054 0.0747,40.29022 0.003,40.47892 -0.0711,0.18589 -0.18134,0.30756 -0.36468,0.40237 -0.1274,0.0659 -0.72185,0.0745 -4.93968,0.0717 -4.34223,-0.003 -4.80945,-0.0107 -4.94952,-0.0831 -0.31057,-0.1606 -0.29345,0.27002 -0.29354,-7.38403 0,-6.54034 -0.005,-6.98234 -0.0854,-7.14111 -0.0469,-0.0931 -0.15373,-0.20868 -0.23728,-0.25688 -0.14267,-0.0823 -0.3985,-0.0878 -4.20901,-0.0906 -4.53945,-0.003 -4.31078,-0.0205 -4.48219,0.33736 -0.0809,0.16884 -0.0853,0.58088 -0.0761,7.03977 0.006,4.14942 -0.008,6.93494 -0.036,7.04899 -0.0593,0.24369 -0.26968,0.46092 -0.48567,0.50144 -0.21609,0.0405 -9.30403,0.0528 -9.5501,0.0128 z m 18.86205,-25.06483 c 0.17464,-0.0903 0.28571,-0.27847 0.32331,-0.54773 0.0144,-0.10353 0.007,-3.72588 -0.0174,-8.04966 -0.0424,-7.63584 -0.0466,-7.87683 -0.14437,-8.39854 -0.21188,-1.13014 -0.57011,-1.92808 -1.13918,-2.53744 -0.82476,-0.88314 -1.77887,-1.25682 -3.2148,-1.25909 -1.53411,-0.002 -2.62069,0.40373 -3.43452,1.28378 -0.39184,0.42372 -0.75143,1.11113 -0.90578,1.7315 -0.20834,0.83734 -0.22404,1.21731 -0.21943,5.31012 0.002,2.14175 -0.0144,3.89409 -0.0373,3.89409 -0.0229,0 -0.0417,1.8233 -0.0417,4.05179 0,3.50721 0.01,4.07667 0.074,4.23686 0.0837,0.2091 0.21604,0.31047 0.45811,0.3508 0.0913,0.0152 1.96175,0.0241 4.15663,0.0198 3.55921,-0.007 4.0071,-0.0163 4.14237,-0.0863 z m 17.93181,25.03828 c -0.24399,-0.062 -0.41734,-0.23634 -0.46327,-0.46602 -0.0156,-0.0779 -0.0294,-12.19349 -0.0306,-26.92353 -0.002,-26.42211 -10e-4,-26.78478 0.0926,-26.9965 0.0612,-0.13833 0.15286,-0.24622 0.25791,-0.30353 0.15512,-0.0846 0.4996,-0.0896 7.14548,-0.10358 9.37754,-0.0197 9.97982,0.009 12.12906,0.58003 2.75112,0.73081 5.12012,2.35551 6.86498,4.70813 1.41452,1.90722 2.2273,3.97745 2.54177,6.47413 0.11299,0.89703 0.16162,5.71398 0.16286,16.13356 0.001,9.90405 -0.0432,13.94001 -0.16469,14.966 -0.20731,1.75103 -0.65034,3.27966 -1.37216,4.7345 -1.64144,3.30834 -4.57798,5.66149 -8.34528,6.68735 -0.90311,0.24592 -1.92493,0.42092 -2.85648,0.4892 -1.04034,0.0763 -15.66855,0.0948 -15.96215,0.0203 z m 14.88792,-9.87253 c 0.31114,-0.0683 0.63269,-0.18523 0.97658,-0.35527 0.45379,-0.22439 0.56599,-0.30755 0.97657,-0.72375 0.89256,-0.90478 1.34404,-1.95354 1.46391,-3.40057 0.0618,-0.74626 0.064,-24.99538 0.002,-26.04731 -0.0244,-0.41679 -0.0884,-0.9593 -0.14215,-1.20558 -0.42911,-1.96607 -1.74938,-3.18735 -3.78787,-3.50383 -0.30162,-0.0468 -1.00883,-0.0734 -2.23225,-0.0839 -1.74304,-0.0149 -1.79442,-0.0127 -1.92873,0.0852 -0.0759,0.0553 -0.18742,0.19727 -0.24785,0.31552 l -0.10986,0.21502 v 17.27877 17.27877 l 0.14775,0.14775 0.14775,0.14775 2.13499,-0.0234 c 1.92937,-0.0211 2.17966,-0.0332 2.59886,-0.12514 z m 30.08246,9.90459 c -2.94091,-0.13999 -3.99773,-0.32648 -5.39955,-0.95283 -1.47372,-0.65847 -2.90981,-1.98064 -3.72558,-3.43004 -0.89295,-1.58653 -1.23502,-3.16074 -1.37664,-6.33539 -0.0643,-1.44188 -0.0636,-32.26343 7.9e-4,-33.64298 0.11343,-2.43045 0.47891,-4.07696 1.26811,-5.71296 1.16464,-2.41427 3.11074,-3.94592 5.69982,-4.48597 0.31621,-0.066 0.80564,-0.14411 1.08763,-0.17367 0.96642,-0.1013 5.98957,-0.15145 11.83341,-0.11813 l 5.75423,0.0328 0.0515,0.11301 c 0.0403,0.0884 0.0282,0.17448 -0.0552,0.39491 -0.16669,0.44037 -2.3413,6.54516 -2.7915,7.8366 -0.42079,1.20705 -0.53371,1.4197 -0.84402,1.5895 -0.14242,0.0779 -0.53366,0.0864 -5.08599,0.1107 -4.83222,0.0257 -4.93843,0.0283 -5.26502,0.12875 -0.52644,0.16187 -0.837,0.46485 -0.98785,0.96373 -0.14001,0.46304 -0.16521,1.31427 -0.16952,5.72638 -0.005,4.78372 -0.0143,4.60673 0.25827,4.76245 0.0868,0.0496 1.48844,0.0675 6.791,0.0869 l 6.68165,0.0244 0.0987,0.12191 c 0.15303,0.18899 0.0983,0.41444 -0.4739,1.95331 -0.69355,1.86512 -1.17444,3.21004 -1.97713,5.5295 -0.41814,1.20826 -0.71889,2.00262 -0.79696,2.10497 -0.0689,0.0904 -0.20901,0.20593 -0.31124,0.25671 -0.17811,0.0885 -0.3841,0.0926 -4.93958,0.10005 -2.61456,0.004 -4.82481,0.0211 -4.91169,0.0374 -0.0869,0.0163 -0.21091,0.0861 -0.27563,0.1551 l -0.11767,0.12547 0.01,5.39977 c 0.006,3.56818 0.0276,5.51702 0.0624,5.74544 0.0982,0.6445 0.3552,1.00709 0.83452,1.17753 0.40335,0.14343 1.47482,0.16568 8.06559,0.1674 3.61882,9.3e-4 6.57967,0.014 6.57967,0.0291 0,0.0935 -3.12373,8.94128 -3.28302,9.29892 -0.27533,0.61816 -0.52986,0.77204 -1.37413,0.83072 -0.82787,0.0575 -9.88039,0.0978 -10.91524,0.0485 z m 32.07649,-10e-4 c -2.61249,-0.11243 -3.61206,-0.25006 -4.7805,-0.6582 -2.06632,-0.72177 -3.65294,-2.13134 -4.61673,-4.10153 -0.73098,-1.49428 -1.02305,-3.0514 -1.14944,-6.128 -0.0648,-1.57596 -0.0637,-31.53527 10e-4,-33.10478 0.12153,-2.94115 0.47253,-4.65699 1.28924,-6.30248 1.19158,-2.40076 3.19989,-3.82502 6.05799,-4.29624 1.18181,-0.19484 2.3553,-0.21824 10.63425,-0.21206 4.31805,0.003 7.86211,0.017 7.87567,0.0305 0.0136,0.0136 -0.54549,1.63692 -1.24236,3.60746 -0.69687,1.97054 -1.4552,4.12051 -1.68518,4.77771 -0.22998,0.6572 -0.45931,1.25047 -0.50963,1.31837 -0.0503,0.0679 -0.16633,0.1493 -0.25781,0.18088 -0.12298,0.0425 -1.44505,0.058 -5.07361,0.0597 -3.03822,10e-4 -5.01729,0.0209 -5.1961,0.0512 -0.79099,0.13385 -1.16203,0.41698 -1.35612,1.0348 l -0.1129,0.35936 v 15.82051 c 0,15.27056 0.003,15.83408 0.0911,16.21113 0.14242,0.61049 0.35367,0.9582 0.69013,1.1359 0.41037,0.21674 0.32089,0.21392 7.49521,0.23644 3.74638,0.0118 6.88318,0.0329 6.97067,0.047 0.20863,0.0336 0.32647,0.21047 0.29,0.4352 -0.015,0.0925 -0.3125,0.95447 -0.6611,1.91559 -0.59004,1.62676 -0.84117,2.33447 -2.08146,5.86574 -0.25789,0.73426 -0.50431,1.38908 -0.5476,1.45515 -0.17227,0.26291 0.0766,0.25092 -5.75398,0.27715 -2.98032,0.0134 -5.84724,0.006 -6.37093,-0.0166 z"
         id="path1906" /></g></g></svg>
