<?xml version="1.0" encoding="UTF-8" standalone="no"?>
<!-- Created with Inkscape (http://www.inkscape.org/) -->

<svg
   version="1.1"
   id="svg2"
   width="2560"
   height="1440"
   viewBox="0 0 2560 1440"
   sodipodi:docname="CONADECO-INKSACAPE.svg"
   inkscape:version="1.2.2 (b0a8486541, 2022-12-01)"
   xml:space="preserve"
   xmlns:inkscape="http://www.inkscape.org/namespaces/inkscape"
   xmlns:sodipodi="http://sodipodi.sourceforge.net/DTD/sodipodi-0.dtd"
   xmlns="http://www.w3.org/2000/svg"
   xmlns:svg="http://www.w3.org/2000/svg"><defs
     id="defs6"><clipPath
       clipPathUnits="userSpaceOnUse"
       id="clipPath18"><path
         d="M 0,1080 H 1920 V 0 H 0 Z"
         id="path16" /></clipPath><clipPath
       clipPathUnits="userSpaceOnUse"
       id="clipPath54"><path
         d="M 0,1080 H 1920 V 0 H 0 Z"
         id="path52" /></clipPath><linearGradient
       x1="0"
       y1="0"
       x2="1"
       y2="0"
       gradientUnits="userSpaceOnUse"
       gradientTransform="matrix(-283.86121,245.10992,-245.10992,-283.86121,1277.4043,239.75578)"
       spreadMethod="pad"
       id="linearGradient78"><stop
         style="stop-opacity:1;stop-color:#ee7125"
         offset="0"
         id="stop72" /><stop
         style="stop-opacity:1;stop-color:#fbea26"
         offset="0.71935201"
         id="stop74" /><stop
         style="stop-opacity:1;stop-color:#fbea26"
         offset="1"
         id="stop76" /></linearGradient><linearGradient
       x1="0"
       y1="0"
       x2="1"
       y2="0"
       gradientUnits="userSpaceOnUse"
       gradientTransform="matrix(-270.16068,-394.23148,394.23148,-270.16068,846.31287,536.33618)"
       spreadMethod="pad"
       id="linearGradient104"><stop
         style="stop-opacity:1;stop-color:#ee7125"
         offset="0"
         id="stop94" /><stop
         style="stop-opacity:1;stop-color:#ee7125"
         offset="0.00760358"
         id="stop96" /><stop
         style="stop-opacity:1;stop-color:#e5222a"
         offset="0.362745"
         id="stop98" /><stop
         style="stop-opacity:1;stop-color:#e5222a"
         offset="0.37241607"
         id="stop100" /><stop
         style="stop-opacity:1;stop-color:#932d5f"
         offset="1"
         id="stop102" /></linearGradient><linearGradient
       x1="0"
       y1="0"
       x2="1"
       y2="0"
       gradientUnits="userSpaceOnUse"
       gradientTransform="matrix(-272.10977,-188.94926,188.94926,-272.10977,849.28503,831.67987)"
       spreadMethod="pad"
       id="linearGradient130"><stop
         style="stop-opacity:1;stop-color:#f08db9"
         offset="0"
         id="stop120" /><stop
         style="stop-opacity:1;stop-color:#8a2f88"
         offset="0.37438313"
         id="stop122" /><stop
         style="stop-opacity:1;stop-color:#8a2f88"
         offset="0.46732"
         id="stop124" /><stop
         style="stop-opacity:1;stop-color:#8a2f88"
         offset="0.54262654"
         id="stop126" /><stop
         style="stop-opacity:1;stop-color:#30358c"
         offset="1"
         id="stop128" /></linearGradient><linearGradient
       x1="0"
       y1="0"
       x2="1"
       y2="0"
       gradientUnits="userSpaceOnUse"
       gradientTransform="matrix(-329.55505,-338.24564,330.39276,-321.90393,1368.795,938.27991)"
       spreadMethod="pad"
       id="linearGradient156"><stop
         style="stop-opacity:1;stop-color:#cbd637"
         offset="0"
         id="stop146" /><stop
         style="stop-opacity:1;stop-color:#cbd637"
         offset="0.0010785"
         id="stop148" /><stop
         style="stop-opacity:1;stop-color:#20bbe6"
         offset="0.509804"
         id="stop150" /><stop
         style="stop-opacity:1;stop-color:#30358c"
         offset="0.99926581"
         id="stop152" /><stop
         style="stop-opacity:1;stop-color:#30358c"
         offset="1"
         id="stop154" /></linearGradient><linearGradient
       x1="0"
       y1="0"
       x2="1"
       y2="0"
       gradientUnits="userSpaceOnUse"
       gradientTransform="matrix(41.238915,-371.15439,371.15439,41.238915,947.47949,912.22668)"
       spreadMethod="pad"
       id="linearGradient178"><stop
         style="stop-opacity:1;stop-color:#ee7125"
         offset="0"
         id="stop172" /><stop
         style="stop-opacity:1;stop-color:#fbea26"
         offset="0.71935201"
         id="stop174" /><stop
         style="stop-opacity:1;stop-color:#fbea26"
         offset="1"
         id="stop176" /></linearGradient><linearGradient
       x1="0"
       y1="0"
       x2="1"
       y2="0"
       gradientUnits="userSpaceOnUse"
       gradientTransform="matrix(479.29315,0,0,38.738197,980.70685,547.05841)"
       spreadMethod="pad"
       id="linearGradient204"><stop
         style="stop-opacity:1;stop-color:#ee7125"
         offset="0"
         id="stop194" /><stop
         style="stop-opacity:1;stop-color:#ee7125"
         offset="0.00760358"
         id="stop196" /><stop
         style="stop-opacity:1;stop-color:#e5222a"
         offset="0.362745"
         id="stop198" /><stop
         style="stop-opacity:1;stop-color:#e5222a"
         offset="0.37241607"
         id="stop200" /><stop
         style="stop-opacity:1;stop-color:#932d5f"
         offset="1"
         id="stop202" /></linearGradient><linearGradient
       x1="0"
       y1="0"
       x2="1"
       y2="0"
       gradientUnits="userSpaceOnUse"
       gradientTransform="matrix(325.55374,64.405479,-64.405479,325.55374,893.54413,238.92349)"
       spreadMethod="pad"
       id="linearGradient230"><stop
         style="stop-opacity:1;stop-color:#f08db9"
         offset="0"
         id="stop220" /><stop
         style="stop-opacity:1;stop-color:#8a2f88"
         offset="0.37438313"
         id="stop222" /><stop
         style="stop-opacity:1;stop-color:#8a2f88"
         offset="0.46732"
         id="stop224" /><stop
         style="stop-opacity:1;stop-color:#8a2f88"
         offset="0.54262654"
         id="stop226" /><stop
         style="stop-opacity:1;stop-color:#30358c"
         offset="1"
         id="stop228" /></linearGradient><linearGradient
       x1="0"
       y1="0"
       x2="1"
       y2="0"
       gradientUnits="userSpaceOnUse"
       gradientTransform="matrix(479.32193,0,0,-479.32193,457.42557,531.24567)"
       spreadMethod="pad"
       id="linearGradient256"><stop
         style="stop-opacity:1;stop-color:#cbd637"
         offset="0"
         id="stop246" /><stop
         style="stop-opacity:1;stop-color:#cbd637"
         offset="0.0010785"
         id="stop248" /><stop
         style="stop-opacity:1;stop-color:#20bbe6"
         offset="0.509804"
         id="stop250" /><stop
         style="stop-opacity:1;stop-color:#30358c"
         offset="0.99926581"
         id="stop252" /><stop
         style="stop-opacity:1;stop-color:#30358c"
         offset="1"
         id="stop254" /></linearGradient><clipPath
       clipPathUnits="userSpaceOnUse"
       id="clipPath266"><path
         d="M 0,1080 H 1920 V 0 H 0 Z"
         id="path264" /></clipPath><clipPath
       clipPathUnits="userSpaceOnUse"
       id="clipPath286"><path
         d="M 0,1080 H 1920 V 0 H 0 Z"
         id="path284" /></clipPath></defs><sodipodi:namedview
     id="namedview4"
     pagecolor="#505050"
     bordercolor="#eeeeee"
     borderopacity="1"
     inkscape:showpageshadow="0"
     inkscape:pageopacity="0"
     inkscape:pagecheckerboard="0"
     inkscape:deskcolor="#505050"
     showgrid="false"
     inkscape:zoom="0.2578125"
     inkscape:cx="1419.6363"
     inkscape:cy="504.24242"
     inkscape:window-width="1920"
     inkscape:window-height="996"
     inkscape:window-x="0"
     inkscape:window-y="40"
     inkscape:window-maximized="1"
     inkscape:current-layer="g10"><inkscape:page
       x="0"
       y="0"
       id="page8"
       width="2560"
       height="1440" /></sodipodi:namedview><g
     id="g10"
     inkscape:groupmode="layer"
     inkscape:label="Page 1"
     transform="matrix(1.3333333,0,0,-1.3333333,0,1440)"><g
       id="g1191"
       transform="matrix(1.1994461,0,0,1.2032683,-169.16032,-95.311811)"><g
         id="g1058"
         inkscape:label="Figure"
         transform="matrix(0.49820235,0,0,0.49820235,172.21435,264.40045)"><path
           id="path393"
           style="display:inline;fill:#616d76;fill-opacity:1;fill-rule:nonzero;stroke:none"
           d="m -47.39136,15.725813 c -0.758749,0.25125 -1.511692,0.122011 -2.096191,-1.187988 -1.100999,-2.465998 1.535692,-2.578353 2.658691,-3.360352 5.089995,-3.5449963 10.964826,-5.560065 16.590821,-8.0390625 C 10.03892,-14.608572 50.519988,-31.898141 90.470948,-50.381122 125.88091,-66.763106 161.85003,-70.364197 198.594,-55.023212 c 15.05998,6.286994 30.5277,7.427751 46.42969,4.322754 14.04498,-2.742997 26.99686,-8.322769 39.92285,-15.030762 -1.332,-1.051999 -2.31752,-1.860396 -3.33252,-2.629395 -14.84299,-11.250989 -29.77162,-22.391055 -44.5166,-33.769045 -16.58799,-12.79999 -32.85876,-25.98719 -47.03174,-41.53418 -5.395,-5.91799 -9.572,-12.54722 -10.125,-20.72021 -0.833,-12.29799 5.61509,-20.83335 15.95508,-25.92335 27.91997,-13.74198 55.79057,-14.01746 83.08154,2.10352 5.311,3.138 10.64096,6.23084 16.27295,8.75684 13.71899,6.15399 27.99063,9.50804 43.05762,7.24804 19.89898,-2.98299 33.78771,-14.60913 43.7417,-31.51611 3.39,-5.75699 6.55221,-11.64247 11.13721,-16.60547 20.28098,-21.95398 44.56879,-37.67084 72.88476,-47.27783 10.59699,-3.596 21.5094,-5.74526 32.79639,-7.88526 -2.344,-5.70599 -4.61523,-11.10398 -8.01123,-15.97998 -10.46799,-15.03198 -24.40921,-22.24106 -42.97119,-19.39306 -13.29799,2.04099 -25.73998,6.75043 -37.95996,12.08642 -19.46898,8.50099 -37.4953,19.64186 -55.48829,30.81885 -4.10499,2.549 -8.47694,4.43319 -13.43994,6.22119 1.183,-6.69399 5.06011,-11.1052 9.4541,-15.0542 11.53399,-10.36799 24.76987,-18.33726 38.04786,-26.15625 13.04998,-7.68399 26.36587,-14.92178 39.65185,-22.19678 2.509,-1.373 3.18421,-2.52752 1.38721,-4.93652 -1.839,-2.465 -3.28858,-5.22567 -5.16357,-7.65967 -10.39599,-13.48898 -23.81577,-20.39409 -41.13575,-18.51709 -9.06599,0.983 -17.30657,4.53785 -25.47656,8.31885 -18.45098,8.53799 -35.48293,19.63027 -53.21192,29.46826 -4.45899,2.474 -8.79937,5.16225 -13.52636,7.94824 -0.367,-4.21499 1.27628,-7.37427 3.36328,-10.28027 3.85399,-5.36999 8.74789,-9.72584 13.96289,-13.73584 13.67698,-10.51699 28.39439,-19.43147 43.25537,-28.12647 4.479,-2.62099 8.95926,-5.24062 13.98926,-8.18261 -43.47596,-20.63298 -83.0904,-16.58454 -119.17237,15.08642 -0.854,-1.46 -0.14388,-2.51271 0.12012,-3.55371 2.665,-10.52199 9.16536,-18.25128 17.98535,-24.15527 6.081,-4.071 12.30089,-7.9376 18.52588,-11.7876 2.001,-1.237 2.34442,-2.02554 0.0864,-3.37353 -6.793,-4.057 -14.11311,-6.2186 -21.9961,-5.7876 -14.19098,0.776 -26.86382,6.58656 -39.15381,12.99756 -8.65599,4.51499 -11.13543,11.82955 -8.16943,21.20654 1.378,4.356 1.71552,8.82123 2.20752,13.26123 1.924,17.37298 -4.54759,29.24423 -20.16358,37.05322 -9.68099,4.841 -20.12646,7.62269 -30.43945,10.70069 -3.098,0.924 -4.49696,2.32971 -4.95996,5.69971 -1.692,12.29498 -5.91428,23.6686 -14.30127,33.05859 -10.34599,11.58499 -22.51272,18.99173 -38.97071,16.17773 -3.61899,-0.61999 -7.484162,-3.98463 -10.36816,-2.32763 -2.827997,1.624 -3.889115,6.14875 -6.016113,9.19775 -13.150987,18.85998 -31.131389,23.4746 -51.401368,13.22461 -1.730999,-0.876 -3.307436,-0.91633 -5.169434,-0.59033 -10.32899,1.808 -18.592238,7.32563 -25.6362313,14.66162 -9.6869903,10.08799 -20.7476387,17.96217 -33.8906257,22.84717 -7.246993,2.694 -14.563364,5.13946 -22.214356,6.64746 1.126999,-1.328 2.369111,-2.40116 3.662109,-3.41016 7.718993,-6.02199 16.336083,-10.67515 24.476075,-16.05615 8.222992,-5.43699 15.5869784,-11.74628 20.6469733,-20.40527 0.9169991,-1.569 1.3044909,-2.72181 -0.020508,-4.4458 -12.0239873,-15.64899 -12.6086133,-32.584 -4.9116212,-50.10499 7.3679926,-16.77198 15.6574869,-21.93328 32.7304699,-21.09228 1.788998,0.088 3.626498,0.24128 5.333496,0.73828 3.035997,0.885 4.75208,-0.13615 6.580078,-2.72314 9.376991,-13.27199 21.518874,-21.96423 38.526857,-21.78223 2.369997,0.026 2.258098,-1.39796 2.600098,-2.87695 3.580996,-15.49499 11.68937,-27.78824 25.589351,-35.92823 8.04,-4.70799 16.71831,-7.89417 25.8003,-9.72217 3.79399,-0.763 5.81451,-2.41149 7.52051,-5.87548 14.59598,-29.64297 39.27313,-41.24485 70.4751,-32.79786 9.11199,2.466 17.54883,1.99833 26.34082,-1.01367 23.46197,-8.03799 45.46903,-5.58667 65.45801,9.92432 4.01899,3.11899 8.67698,4.96473 13.72998,5.67773 7.36399,1.04 14.77217,1.81178 22.09717,3.07178 17.28898,2.973 33.13563,9.1339 45.89062,21.73389 2.066,2.04099 4.65228,2.56861 7.38428,2.82861 4.86099,0.464 9.61644,1.41369 14.27344,2.92969 17.92998,5.83599 30.43577,18.12613 40.05176,33.76611 2.64299,4.298 6.26593,6.45363 11.14892,7.26563 28.59197,4.75499 48.05116,20.68639 57.84815,48.02637 2.095,5.84499 5.19302,10.80527 9.52002,15.15527 6.82099,6.85699 14.67387,12.49542 21.96387,18.79541 8.90199,7.69399 17.66705,15.76334 21.12304,27.38233 2.072,6.96699 6.19469,11.02785 12.20069,14.31884 13.96598,7.653 27.75255,15.63295 41.62353,23.46094 4.163,2.349 7.10881,5.87069 10.8208,10.22168 -3.66199,-0.402 -6.12727,0.38778 -8.67627,-0.67822 -17.98398,-7.52299 -36.14884,-14.6041 -53.92383,-22.64209 -7.17699,-3.246 -12.37073,-8.20472 -15.80273,-15.07471 -4.807,-9.62399 -11.67493,-17.51683 -20.04492,-24.09082 -8.27699,-6.50099 -16.79451,-12.69547 -25.2085,-19.02246 -1.638,-1.232 -3.51917,-1.41783 -5.49316,-1.31983 -6.04,0.302 -12.01223,1.12022 -17.92823,2.34522 -22.73697,4.71199 -42.52548,15.51836 -60.75146,29.50635 -4.937,3.78899 -9.89557,7.57667 -14.87256,12.63867 5.85199,0.118 10.92045,-0.1626 15.98144,0.5874 14.83399,2.198 29.82015,3.41072 44.30713,7.67871 19.24198,5.668 31.84468,21.76369 31.49268,40.93067 -5.64499,-4.85 -11.13033,-9.46513 -16.50732,-14.20313 -7.939,-6.99799 -16.6041,-12.40912 -27.41309,-13.72412 -5.209,-0.634 -10.33925,-1.94502 -15.55225,-2.49902 -17.62798,-1.871 -34.3281,0.49836 -49.05908,11.33935 -4.894,3.601 -8.89851,8.16028 -13.4165,12.15528 -18.73099,16.56598 -41.17167,19.79166 -64.95264,17.40967 -17.23199,-1.727 -32.48369,-8.8851 -47.03467,-17.93409 -19.74898,-12.28098 -40.16553,-11.61709 -60.66651,-2.0581 -6.78999,3.16599 -7.58234,7.7902 -2.77734,13.5542 2.956,3.54599 6.21929,6.84718 9.46728,10.13818 14.58799,14.78499 31.27093,27.06485 47.85792,39.40283 22.78197,16.946987 45.81066,33.500156 72.82763,43.494146 18.00299,6.659993 36.048,10.303469 55.35499,6.584473 23.46097,-4.517996 47.12562,-7.819746 71.1416,-7.114747 21.39398,0.628 42.08591,4.503631 61.48389,13.911622 29.68397,14.396985 59.3462,28.838476 88.95117,43.3974618 5.168,2.5409975 10.69309,4.472996 15.30908,8.04199238 1.202,0.92899907 3.45153,1.70655296 2.51954,3.78955092 -1.099,2.4529975 -3.02951,0.4443824 -4.31251,0.067383 -7.98199,-2.34599768 -15.89022,-4.9478465 -23.82421,-7.464844 -1.164,-1.0929989 -2.48358,-1.6728905 -4.14258,-1.5878906 -0.96,0.049 -2.47419,0.4337175 -2.74219,-0.7382813 -0.65,-2.8379972 -2.79078,-2.0455081 -4.57178,-2.2705079 -1.009,-0.1279998 -2.36759,0.025499 -2.95459,-0.5625 -4.61599,-4.6219953 -11.21434,-5.3859493 -16.54834,-8.6689453 -4.38299,-2.697998 -9.64435,-3.924847 -14.23535,-6.339844 -3.931,-2.067998 -7.88534,-4.132222 -11.67334,-6.574219 -4.143,-2.668998 -9.47456,-3.742967 -14.28955,-5.438965 -2.44,-0.858999 -3.63005,-3.472606 -6.60205,-3.370606 -5.336,0.184 -10.3479,-2.286455 -15.1919,-3.814453 -7.18199,-2.265998 -14.67504,-2.636405 -21.83203,-5.087402 -5.63699,-1.929999 -12.20488,-0.746568 -18.42187,-1.580567 -12.81799,-1.719998 -25.72644,0.777641 -38.60743,1.306641 -0.611,0.025 -1.26761,0.22309 -1.80761,0.51709 -3.169,1.718998 -6.47412,2.597082 -10.14112,2.559082 -3.21099,-0.033 -6.77009,-0.78011 -9.14209,2.608886 -0.305,0.436 -1.43787,0.372438 -2.19287,0.398438 -4.16299,0.144 -8.51027,-0.585188 -11.94726,2.778809 -0.292,0.285999 -0.98275,0.215121 -1.48975,0.224121 -14.66899,0.257 -29.33936,0.53108 -43.92334,-1.565918 -0.597,-0.086 -1.14745,-0.63518 -1.73145,-0.65918 -5.11999,-0.206 -9.21441,-3.844996 -14.4624,-4.020996 -3.355,-0.112 -5.90024,-3.781676 -9.71924,-3.367676 -0.111,0.012 -0.35965,-0.379516 -0.38965,-0.603516 -0.304,-2.269997 -2.06753,-1.910804 -3.54052,-1.924804 -6.171,-0.061 -12.34364,-0.07796 -18.51563,-0.08496 -0.872,-0.001 -1.69366,0.08468 -2.57666,0.471679 -4.414,1.935998 -7.76606,6.228563 -13.18506,5.976563 -0.388,-0.018 -0.8201,0.556231 -1.2041,0.886231 -3.192,2.747997 -7.37206,3.900235 -11.10205,4.740234 -4.015,0.904999 -7.08159,3.797254 -11.37158,4.135254 -1.702,0.134 -3.99688,0.167591 -5.77588,1.07959 -3.344,1.716998 -7.0058,2.533395 -10.6128,2.629394 -14.39998,0.385 -28.82259,0.792014 -43.14258,-1.458984 -0.84699,-0.133 -2.05922,0.228007 -2.28222,-0.916992 -0.467,-2.400998 -2.2418,-1.966797 -3.8628,-2.091797 -1.36599,-0.105 -3.01363,0.452643 -3.99462,-0.839356 -1.841,-2.425997 -4.4098,-2.229058 -6.9668,-2.310058 -1.145,-0.036 -2.78171,0.221378 -3.3457,-0.411621 -3.908,-4.385996 -9.86503,-2.898139 -14.66602,-5.140137 -4.753,-2.218998 -11.1532,-0.807244 -16.8252,-1.948242 -7.34399,-1.477999 -14.5927,1.858175 -21.9917,1.305175 -2.90399,-0.216999 -5.81597,0.201272 -8.00097,1.92627 -2.507,1.978998 -6.90151,-0.04911 -8.16651,4.108887 -4.69499,-0.268 -8.73035,2.172274 -13.110349,3.155273 -5.656994,1.270999 -11.173759,2.985351 -16.322754,5.506348 -2.093998,1.024999 -5.17438,-0.296924 -5.963379,1.601074 -1.168999,2.810998 -3.091217,2.085438 -4.970215,2.273438 -1.256999,0.127 -2.577189,-0.07745 -3.492188,1.164551 -1.276998,1.733998 -3.170603,2.111961 -5.141601,1.959961 -4.114996,-0.317 -6.594767,4.420538 -10.905762,3.477539 -0.129,-0.028 -0.529543,0.563414 -0.581543,0.899414 -0.313,2.054998 -1.883349,1.801277 -3.256348,1.759277 -1.506999,-0.047 -2.799325,0.309185 -3.757324,1.513184 -1.077999,1.352999 -2.531537,1.740886 -4.123536,1.483887 -5.106995,-0.823999 -8.904239,2.892427 -13.365234,4.211426 -3.150997,0.931999 -6.578695,2.1500482 -9.783692,3.4980468 C 11.122171,-5.2231508 4.972726,-3.937281 7.3099746e-4,7.1507611e-4 -0.04826895,-0.40528452 0.60433949,-1.2272848 -0.27465963,-1.124285 -1.3876585,-0.99428508 -2.4480085,-0.42037048 -3.5310074,-0.03737086 -17.430993,4.8806242 -31.315561,9.8435093 -45.258547,14.634505 c -0.6085,0.208999 -1.374064,0.840058 -2.132813,1.091308 z M 56.241943,-246.27761 c 1.368343,0.082 2.918549,-0.16229 4.623047,-0.75879 12.705988,-4.445 19.107149,-11.08228 18.577149,-24.80127 -0.223,-5.77199 -0.03662,-11.55983 -0.03662,-17.34082 h -0.121582 c 0,-6.68199 -0.159082,-13.36947 0.06592,-20.04346 0.116,-3.407 -0.990089,-3.52769 -3.788086,-2.55469 -17.602982,6.123 -24.890427,16.16372 -25.961426,36.6167 -0.348,6.665 -0.255567,13.366 -0.08057,20.042 0.1425,5.41274 2.617141,8.59428 6.722168,8.84033 z m -39.691407,-2.99707 c 0.32575,-0.0481 0.666075,-0.24062 1.038574,-0.39112 7.635993,-3.07399 11.690408,-8.1575 12.691407,-16.85449 0.892999,-7.76799 -1.90828,-13.9176 -4.759278,-20.4126 -0.373999,-0.85299 -0.790704,-1.91405 -1.845703,-0.81005 -5.884994,6.15899 -12.792056,11.66305 -13.8310548,21.01904 -0.1539998,1.393 -0.3720353,2.77848 -0.5610351,4.16748 -0.3369997,5.51099 3.4653389,8.93206 6.3193359,12.81006 0.3115,0.424 0.622004,0.5198 0.947754,0.47168 z m 98.367194,-23.81836 c 2.39717,0.0723 4.95949,-0.46039 7.62011,-1.63477 12.43999,-5.49199 18.12952,-15.71922 19.45752,-28.76221 0.271,-2.66999 0.0395,-5.39087 0.0395,-8.08886 0.041,-13.53299 -2.49542,-26.80364 -4.21142,-40.16162 -0.294,-2.29 -0.79522,-4.55948 -0.94922,-6.85547 -0.145,-2.151 -0.7644,-2.57573 -2.8374,-1.71973 -20.39098,8.41899 -32.50567,23.60417 -36.701664,45.09815 -2.257998,11.56798 -0.673178,22.72338 4.861814,33.23437 2.97069,5.64162 7.44692,8.73115 12.72071,8.89014 z m 52.5542,-55.51465 c 1.06725,0.0482 2.26544,-0.0334 3.60644,-0.23438 5.515,-0.826 10.83451,-2.20909 15.39551,-5.49609 7.15399,-5.157 10.59197,-12.32987 10.68897,-21.10986 0.084,-7.609 -1.03465,-15.0927 -2.91065,-22.42969 -2.229,-8.72499 -1.64422,-16.35679 7.84277,-21.55078 -10.38399,-3.196 -19.47074,-1.73105 -28.07373,3.04394 -14.36698,7.97399 -19.76324,20.20551 -17.05224,37.75049 1.095,7.08499 2.05305,14.19123 2.95605,21.30322 0.574,4.519 1.99413,7.12269 4.72412,8.17969 0.819,0.317 1.75551,0.49521 2.82276,0.54346 z"
           transform="translate(139.89771,459.29373)" /><path
           d="m 0,0 c -8.926,12.455 -16.172,25.892 -22.901,39.607 -14.907,30.379 -25.112,62.289 -30.708,95.663 -2.892,17.248 -4.519,34.607 -5.166,52.098 -0.972,26.28 0.673,52.404 4.051,78.425 9.7,74.723 40.855,138.988 94.033,192.538 38.334,38.602 83.049,66.816 134.808,83.761 22.489,7.362 45.549,12.094 68.946,15.451 25.51,3.66 51.126,5.15 76.868,4.424 39.802,-1.122 78.509,-8.191 116.094,-21.445 38.384,-13.536 73.718,-32.482 104.968,-58.72 32.919,-27.64 58.616,-60.983 77.931,-99.303 1.282,-2.544 4.412,-5.209 3.081,-7.764 -1.085,-2.082 -4.649,-2.885 -7.13,-4.222 -40.458,-21.809 -80.939,-43.574 -121.335,-65.495 -3.159,-1.715 -4.589,-1.438 -6.58,1.6 -12.447,18.989 -26.864,36.374 -43.681,51.661 -27.597,25.086 -59.493,41.712 -96.324,48.597 -22.539,4.214 -45.189,4.911 -67.895,2.169 -36.12,-4.362 -68.66,-17.558 -97.354,-40.115 -33.546,-26.371 -56.663,-59.869 -68.684,-100.798 -7.337,-24.983 -10.007,-50.591 -8.046,-76.6 3.786,-50.204 21.414,-94.693 55.995,-131.665 26.551,-28.389 59.313,-46.672 97.447,-54.028 72.006,-13.89 135.596,4.072 190.209,52.988 14.517,13.002 26.505,28.309 36.34,45.182 1.603,2.75 2.63,3.108 5.446,1.45 33.205,-19.543 66.502,-38.929 99.771,-58.361 8.983,-5.246 17.894,-10.618 26.972,-15.692 2.473,-1.381 2.493,-2.511 1.268,-4.719 -5.727,-10.318 -11.322,-20.71 -16.964,-31.075 -0.075,-0.667 -0.327,-1.526 -0.87,-1.623 -3.905,-0.7 -6.594,-4.477 -10.862,-4.228 -0.902,0.053 -1.76,-0.307 -2.551,-0.778 -9.164,-5.463 -18.897,-9.678 -28.784,-13.654 -4.198,-1.688 -8.411,-3.752 -11.975,-6.749 -1.005,-0.845 -2.098,-1.415 -3.376,-1.763 -5.712,-1.554 -10.924,-4.3 -16.315,-6.657 -4.269,-1.866 -9,-2.842 -13.539,-4.168 -7.846,-2.292 -16.153,-2.638 -23.838,-5.619 -0.722,-0.281 -1.475,-0.523 -2.245,-0.524 -13.719,-0.016 -27.422,-3.385 -41.054,-1.405 -7.773,1.129 -16.024,-0.154 -23.372,3.764 -1.256,0.671 -2.753,0.596 -4.171,0.58 -3.738,-0.045 -7.476,-0.223 -10.632,2.428 -0.78,0.654 -1.947,0.666 -2.977,0.627 -3.788,-0.144 -7.407,0.241 -10.696,2.441 -1.3,0.87 -2.979,0.679 -4.523,0.681 -8.231,0.011 -16.553,0.772 -24.668,-0.202 -8.926,-1.072 -18.134,-0.99 -26.661,-4.999 -3.468,-1.631 -7.715,-1.578 -11.107,-3.828 -7.03,-4.662 -14.975,-3.028 -22.657,-3.353 -4.018,-0.171 -7.657,0.728 -11.012,2.826 -6.324,3.954 -13.406,6.314 -20.219,9.098 -8.706,3.559 -17.853,6.104 -27.126,7.981 -1.394,0.282 -2.819,0.203 -4.233,0.197 -12.818,-0.053 -25.659,0.506 -38.4,-1.546 -1.287,-0.208 -2.548,-0.297 -3.51,-1.321 -0.439,-0.467 -0.931,-1.123 -1.528,-1.118 -4.997,0.044 -8.813,-4.18 -13.907,-3.779 -1.435,0.113 -2.832,-0.302 -3.974,-1.232 -1.693,-1.377 -3.649,-1.804 -5.763,-1.812 -1.03,-0.003 -2.204,0.093 -3.012,-0.497 -4.069,-2.967 -8.792,-2.155 -13.336,-2.734 -4.956,-0.631 -9.832,-1.752 -14.879,-1.397 -6.635,0.467 -13.243,1.361 -19.845,2.028 -4.141,0.418 -8.731,1.877 -12.353,4.725 -0.751,0.591 -1.593,0.754 -2.478,0.944 -9.172,1.961 -18,5.027 -26.858,8.07 -7.396,2.541 -14.403,6.057 -22.1,7.953 -3.444,0.849 -7.025,2.743 -10.442,4.426 -3.756,1.849 -7.422,4.466 -12.068,4.359 -4.205,-0.096 -7.483,2.974 -11.456,4.047 -2.853,0.77 -5.691,2.342 -8.651,3.035 C 12.273,-7.955 7.959,-4.583 2.744,-3.661 0.519,-3.267 1.806,-0.534 0,0"
           style="display:inline;fill:#0775b5;fill-opacity:1;fill-rule:nonzero;stroke:none"
           id="path22"
           transform="translate(139.89771,459.29373)" /><path
           d="m 0,0 c -0.989,0.179 -1.985,0.327 -2.967,0.542 -8.731,1.914 -14.295,-0.934 -17.495,-9.48 -3.225,-8.612 -1.961,-17.525 -0.718,-26.284 0.412,-2.898 2.956,-5.006 5.472,-6.717 2.333,-1.587 4.733,-3.122 6.84,-4.978 3.615,-3.185 3.753,-5.619 0.425,-9.164 -2.093,-2.23 -4.544,-4.145 -6.955,-6.048 -1.72,-1.359 -2.583,-2.78 -1.516,-4.926 0.282,-0.569 0.368,-1.232 0.627,-1.815 3.808,-8.568 2.68,-16.023 -3.452,-23.499 -4.325,-5.271 -7.031,-11.87 -10.729,-18.348 -2.045,5.268 -4.702,9.861 -5.354,15.262 -1.393,11.544 -12.208,22.375 -23.601,23.686 -1.348,0.155 -3.189,0.579 -3.887,-0.806 -0.629,-1.247 0.934,-2.247 1.777,-3.111 2.241,-2.299 4.703,-4.385 6.926,-6.7 3.451,-3.595 4.911,-7.717 3.059,-12.677 -0.519,-1.389 -0.982,-2.186 -2.692,-1.881 -5.549,0.987 -11.222,1.273 -16.638,3.019 -3.466,1.117 -6.585,2.799 -9.349,5.198 -6.935,6.018 -7.892,10.294 -4.076,18.618 1.982,4.325 3.732,8.717 4.212,13.52 0.645,6.458 -1.249,12.266 -6.041,16.383 -17.49,15.029 -35.618,29.147 -58.505,35.254 -3.086,0.824 -6.286,1.213 -9.408,1.915 -8.793,1.978 -12.973,8.136 -11.608,16.994 1.815,11.775 -1.981,17.639 -13.18,20.996 -5.253,1.574 -8.831,6.045 -13.616,8.571 -6.105,3.223 -11.926,6.984 -17.992,10.586 -0.559,-9.08 4.01,-16.082 12.804,-19.991 2.801,-1.245 5.751,-2.14 8.249,-4.061 3.08,-2.367 4.176,-5.31 2.374,-8.754 -4.281,-8.182 -10.727,-14.657 -17.189,-21.093 -1.576,-1.57 -1.916,0.14 -2.381,0.983 -2.784,5.049 -5.153,10.335 -9.114,14.667 -6.261,6.846 -14.199,10.733 -23.169,11.913 -6.377,0.839 -10.451,4.26 -13.263,9.325 -3.416,6.156 -6.51,12.539 -9.165,19.059 -4.363,10.718 -2.733,19.712 6.553,26.477 9.218,6.716 6.319,20.137 -4.167,24.941 -3.37,1.544 -6.722,3.142 -9.715,5.465 0.145,0.978 0.925,0.684 1.44,0.756 8.299,1.151 13.579,6.138 16.991,13.436 1.466,3.136 2.985,6.275 4.08,9.547 0.967,2.889 2.273,3.378 5.069,2.251 14.51,-5.852 29.117,-11.465 43.631,-17.308 7.327,-2.95 13.969,-3.161 20.457,2.367 5.065,4.315 11.08,3.821 16.608,0.671 5.39,-3.071 11.072,-4.683 17.19,-4.929 1.722,-0.069 2.794,-0.894 3.868,-2.131 2.778,-3.197 5.596,-6.372 8.573,-9.383 3.99,-4.034 8.798,-6.694 14.504,-7.303 4.592,-0.49 9.214,-0.902 13.827,-0.949 7.346,-0.075 12.941,2.905 15.795,11.091 C -74.071,90.411 -61.292,70.808 -46.915,52.29 -32.559,33.8 -16.844,16.561 0,0"
           style="display:inline;fill:#5e6a72;fill-opacity:1;fill-rule:nonzero;stroke:none"
           id="path30"
           transform="translate(572.02521,643.77413)" /></g><g
         id="g1065"
         inkscape:label="Text"
         transform="translate(-240.4396,-107.96024)"><text
           xml:space="preserve"
           style="font-size:175.339px;font-family:'Helvetica Light';-inkscape-font-specification:'Helvetica Light, Normal';fill:#5e6a72;stroke-width:2.0311"
           x="840.13013"
           y="-636.61804"
           id="text252"
           transform="scale(1,-1)"><tspan
             sodipodi:role="line"
             id="tspan250"
             style="font-style:normal;font-variant:normal;font-weight:bold;font-stretch:normal;font-size:175.339px;font-family:Montserrat;-inkscape-font-specification:'Montserrat, Bold';font-variant-ligatures:normal;font-variant-caps:normal;font-variant-numeric:normal;font-variant-east-asian:normal;stroke-width:2.0311"
             x="840.13013"
             y="-636.61804">CONADECO</tspan></text><text
           xml:space="preserve"
           style="font-size:70px;font-family:'Helvetica Light';-inkscape-font-specification:'Helvetica Light, Normal';fill:#5e6a72;stroke-width:0.792988"
           x="866.30634"
           y="-555.81415"
           id="text464"
           transform="scale(1,-1)"><tspan
             sodipodi:role="line"
             id="tspan462"
             style="font-style:normal;font-variant:normal;font-weight:500;font-stretch:normal;font-size:70px;font-family:Montserrat;-inkscape-font-specification:'Montserrat, Medium';font-variant-ligatures:normal;font-variant-caps:normal;font-variant-numeric:normal;font-variant-east-asian:normal;stroke-width:0.792988"
             x="866.30634"
             y="-555.81415">Confederación Nacional de</tspan><tspan
             sodipodi:role="line"
             style="font-style:normal;font-variant:normal;font-weight:500;font-stretch:normal;font-size:70px;font-family:Montserrat;-inkscape-font-specification:'Montserrat, Medium';font-variant-ligatures:normal;font-variant-caps:normal;font-variant-numeric:normal;font-variant-east-asian:normal;stroke-width:0.792988"
             x="866.30634"
             y="-467.72504"
             id="tspan466">Asociaciones de Desarrollo </tspan></text></g></g></g></svg>
