<?xml version="1.0" encoding="UTF-8"?>
<svg id="Logotipo" xmlns="http://www.w3.org/2000/svg" viewBox="0 0 1920 1080">
  <defs>
    <style>
      .cls-1 {
        fill: #fff;
        stroke-width: 0px;
      }
    </style>
  </defs>
  <g id="Logotipo-2" data-name="Logotipo">
    <g>
      <path class="cls-1" d="m162.37,325.93c9.51,5.49,16.56,12.97,21.16,22.45,4.6,9.48,6.9,20.21,6.9,32.18s-2.38,22.08-7.13,31.31c-4.76,9.23-11.85,16.51-21.28,21.83-9.43,5.32-20.9,7.98-34.39,7.98h-46.01v52.39c0,4.16-1.92,6.24-5.75,6.24h-10.12c-3.84,0-5.75-2.08-5.75-6.24v-170.14c0-4.15,1.92-6.24,5.75-6.24h61.42c13.95,0,25.69,2.74,35.2,8.23Zm-11.62,90.31c6.06-3.82,10.58-8.89,13.57-15.22,2.99-6.32,4.49-13.14,4.49-20.46s-1.57-14.51-4.72-21.08c-3.15-6.57-7.82-11.93-14.03-16.09-6.21-4.15-13.77-6.24-22.66-6.24h-45.78v84.82h47.16c8.59,0,15.91-1.91,21.97-5.74Z"/>
      <path class="cls-1" d="m379.62,481.1c4.31,0,6.47,2.08,6.47,6.24v6.74c0,4.16-2.16,6.24-6.47,6.24h-117.49c-4.31,0-6.47-2.08-6.47-6.24v-170.14c0-4.15,2.16-6.24,6.47-6.24h11.39c4.31,0,6.47,2.08,6.47,6.24v157.16h99.64Z"/>
      <path class="cls-1" d="m455.81,500.31h-12.29c-1.58,0-2.8-.37-3.66-1.12-.87-.75-1.3-1.78-1.3-3.12,0-1,.24-2.08.71-3.24l79.43-171.38c.63-1.5,1.3-2.49,2.01-2.99.71-.5,1.54-.75,2.48-.75s1.77.25,2.48.75c.71.5,1.38,1.5,2.01,2.99l79.43,171.38c.47,1.17.71,2.25.71,3.24,0,1.33-.44,2.37-1.3,3.12-.87.75-2.09,1.12-3.66,1.12h-12.53c-3.15,0-5.52-1.58-7.09-4.74l-13.24-29.94h-93.85l-13.24,29.94c-1.42,3.16-3.78,4.74-7.09,4.74Zm29.79-54.38h75.18l-37.35-84.57-37.83,84.57Z"/>
      <path class="cls-1" d="m829.57,323.94v173.13c0,2.16-.93,3.24-2.79,3.24-.85,0-1.61-.21-2.28-.62-.68-.41-1.61-1.29-2.79-2.62l-125.12-127.98v124.98c0,4.16-2.11,6.24-6.33,6.24h-10.89c-4.22,0-6.33-2.08-6.33-6.24v-172.88c0-2.33,1.01-3.49,3.04-3.49,1.01,0,1.86.25,2.53.75.67.5,1.52,1.33,2.53,2.49l124.86,126.98v-123.98c0-4.15,2.11-6.24,6.33-6.24h10.89c4.22,0,6.33,2.08,6.33,6.24Z"/>
      <path class="cls-1" d="m1338.26,323.94v173.13c0,2.16-.93,3.24-2.79,3.24-.85,0-1.61-.21-2.28-.62-.68-.41-1.61-1.29-2.79-2.62l-125.12-127.98v124.98c0,4.16-2.11,6.24-6.33,6.24h-10.89c-4.22,0-6.33-2.08-6.33-6.24v-172.88c0-2.33,1.01-3.49,3.04-3.49,1.01,0,1.86.25,2.53.75.67.5,1.52,1.33,2.53,2.49l124.86,126.98v-123.98c0-4.15,2.11-6.24,6.33-6.24h10.89c4.22,0,6.33,2.08,6.33,6.24Z"/>
      <path class="cls-1" d="m1018.9,337.16h-100.35v64.61h87.97c4.21,0,6.32,2.08,6.32,6.24v7.73c0,4.16-2.11,6.24-6.32,6.24h-87.97l-.25,72.1c0,4.16-2.11,6.24-6.32,6.24h-10.87c-4.21,0-6.32-2.08-6.32-6.24v-170.14c0-4.15,2.11-6.24,6.32-6.24h117.8c4.21,0,6.32,2.08,6.32,6.24v6.99c0,4.16-2.11,6.24-6.32,6.24Z"/>
      <path class="cls-1" d="m1116.52,323.94v170.14c0,4.16-2.32,6.24-6.94,6.24h-12.21c-4.63,0-6.94-2.08-6.94-6.24v-170.14c0-4.15,2.31-6.24,6.94-6.24h12.21c4.62,0,6.94,2.08,6.94,6.24Z"/>
      <path class="cls-1" d="m1455.65,323.94v170.14c0,4.16-2.32,6.24-6.94,6.24h-12.21c-4.63,0-6.94-2.08-6.94-6.24v-170.14c0-4.15,2.31-6.24,6.94-6.24h12.21c4.62,0,6.94,2.08,6.94,6.24Z"/>
      <path class="cls-1" d="m1651.3,323.94v6.99c0,4.16-2.02,6.24-6.06,6.24h-47.76v156.91c0,4.16-2.02,6.24-6.06,6.24h-10.43c-4.04,0-6.06-2.08-6.06-6.24v-156.91h-48c-4.04,0-6.06-2.08-6.06-6.24v-6.99c0-4.15,2.02-6.24,6.06-6.24h118.31c4.04,0,6.06,2.08,6.06,6.24Z"/>
      <path class="cls-1" d="m1840.63,317.7h13.77c3.74,0,5.61,1.33,5.61,3.99,0,1-.43,2.16-1.27,3.49l-65.26,106.02v62.87c0,4.16-2.13,6.24-6.37,6.24h-11.22c-4.25,0-6.37-2.08-6.37-6.24v-63.36l-64.75-105.52c-.85-1.33-1.27-2.49-1.27-3.49,0-2.66,1.87-3.99,5.61-3.99h13.51c3.4,0,5.95,1.41,7.65,4.24l51.24,85.82,51.49-85.82c1.7-2.83,4.25-4.24,7.65-4.24Z"/>
    </g>
    <g>
      <path class="cls-1" d="m239.09,762.3c-25.2,0-46.13-8.83-62.79-26.5-16.66-17.67-24.99-39.27-24.99-64.8s8.33-47.13,24.99-64.8c16.66-17.67,37.59-26.5,62.79-26.5,15.12,0,29.05,3.68,41.82,11.03,12.76,7.35,22.71,17.29,29.87,29.8l-4.15,2.54c-6.67-11.83-16.01-21.26-28.04-28.28-12.03-7.01-25.2-10.53-39.5-10.53-23.9,0-43.69,8.37-59.37,25.11-15.69,16.74-23.53,37.28-23.53,61.63s7.84,44.89,23.53,61.63c15.69,16.74,35.48,25.11,59.37,25.11,14.79,0,28.32-3.68,40.6-11.03,12.27-7.36,21.58-17.2,27.92-29.55l4.39,2.54c-6.99,13.02-16.99,23.38-29.99,31.07-13.01,7.7-27.31,11.54-42.92,11.54Z"/>
      <path class="cls-1" d="m496.79,735.54c-17.15,17.84-37.84,26.76-62.06,26.76s-44.91-8.92-62.06-26.76c-17.15-17.84-25.72-39.35-25.72-64.55s8.57-46.71,25.72-64.55c17.15-17.84,37.83-26.76,62.06-26.76s44.9,8.92,62.06,26.76c17.15,17.84,25.72,39.36,25.72,64.55s-8.58,46.71-25.72,64.55Zm-120.7-3.17c16.17,16.91,35.72,25.36,58.64,25.36s42.47-8.45,58.64-25.36c16.17-16.9,24.26-37.37,24.26-61.38s-8.09-44.47-24.26-61.38c-16.18-16.9-35.72-25.36-58.64-25.36s-42.47,8.46-58.64,25.36c-16.18,16.91-24.26,37.37-24.26,61.38s8.08,44.47,24.26,61.38Z"/>
      <path class="cls-1" d="m685.74,579.69h4.88v182.61h-4.88l-112.16-173.74v173.74h-4.88v-182.61h4.88l112.16,173.74v-173.74Z"/>
      <path class="cls-1" d="m798.49,762.3c-15.77,0-28.94-3.68-39.5-11.03-10.57-7.36-17.48-16.7-20.73-28.03l4.15-2.54c2.93,10.99,9.3,19.91,19.14,26.76,9.83,6.85,22.15,10.27,36.94,10.27,15.77,0,27.76-4.01,35.97-12.05,8.21-8.03,12.31-18.13,12.31-30.31,0-10.82-4.19-19.48-12.56-26-8.37-6.51-20.52-12.21-36.45-17.12-8.62-2.54-15.69-4.99-21.21-7.35-5.53-2.37-10.89-5.33-16.09-8.88-5.2-3.55-9.06-7.86-11.58-12.93-2.52-5.07-3.78-10.91-3.78-17.5,0-12.85,4.67-23.71,14.02-32.59,9.35-8.88,21.42-13.32,36.21-13.32,13,0,23.85,3.3,32.55,9.89,8.69,6.59,15,15.22,18.9,25.87l-3.9,2.28c-8.29-22.32-24.14-33.48-47.55-33.48-14.14,0-25.24,4.15-33.28,12.43-8.05,8.29-12.07,17.92-12.07,28.91,0,4.91.98,9.34,2.93,13.32,1.95,3.97,4.15,7.23,6.58,9.76,2.44,2.54,6.26,5.12,11.46,7.74,5.2,2.62,9.55,4.61,13.05,5.96,3.49,1.36,8.74,3.21,15.73,5.58,17.07,5.75,29.99,12.09,38.77,19.02,8.78,6.94,13.17,16.4,13.17,28.41,0,14.04-4.75,25.36-14.26,33.99-9.51,8.62-22.47,12.93-38.89,12.93Z"/>
      <path class="cls-1" d="m1000.24,745.45c-10.97,11.23-25.81,16.85-44.5,16.85s-33.53-5.61-44.5-16.85c-10.97-11.23-16.46-25.76-16.46-43.59v-122.17h4.88v122.17c0,16.12,4.84,29.45,14.51,39.99,9.67,10.55,23.53,15.82,41.57,15.82s31.9-5.27,41.57-15.82c9.67-10.54,14.51-23.87,14.51-39.99v-122.17h4.88v122.17c0,17.83-5.49,32.37-16.46,43.59Z"/>
      <path class="cls-1" d="m1082.27,757.6h85.34v4.7h-90.22v-182.61h4.88v177.91Z"/>
      <path class="cls-1" d="m1298.78,578.57v4.72h-56.08v179h-4.88v-179h-56.08v-4.72h117.04Z"/>
      <path class="cls-1" d="m1338.26,579.69h4.88v182.61h-4.88v-182.61Z"/>
      <path class="cls-1" d="m1515.99,579.69h4.88v182.61h-4.88l-112.16-173.74v173.74h-4.88v-182.61h4.88l112.16,173.74v-173.74Z"/>
      <path class="cls-1" d="m1742.61,680.38v2.54c0,22.32-7.48,41.13-22.43,56.43-14.96,15.3-34.3,22.95-58.03,22.95-26.33,0-47.96-8.79-64.86-26.38-16.91-17.58-25.36-39.22-25.36-64.93s8.33-47.13,24.99-64.8c16.66-17.67,37.59-26.5,62.79-26.5,15.28,0,29.38,3.8,42.31,11.41,12.92,7.61,22.88,17.75,29.87,30.43l-4.15,2.54c-6.5-12.17-15.85-21.85-28.04-29.04-12.19-7.18-25.52-10.78-39.99-10.78-23.9,0-43.69,8.37-59.37,25.11-15.69,16.74-23.53,37.28-23.53,61.63s8,44.89,24.02,61.63c16.01,16.74,36.45,25.11,61.32,25.11,22.11,0,40.15-6.97,54.13-20.92,13.98-13.95,21.21-31.24,21.7-51.87h-80.95v-4.57h85.59Z"/>
    </g>
  </g>
</svg>